<svg width="100" height="80" viewBox="0 0 100 80" fill="none" xmlns="http://www.w3.org/2000/svg">
<g clip-path="url(#clip0_3_10)">
<path d="M19.0875 53.3333C11.9 53.3333 5.42083 50.2067 2.1 45.1733C2.1 45.1733 2.05417 45.0967 2.05 45.0967C0.708333 43.05 0 40.7133 0 38.3333C0 35.9633 0.6875 33.69 2.04583 31.5833C5.40417 26.49 11.9042 23.3367 19.0167 23.3367C23.9667 23.3367 28.4333 24.7267 31.8667 27.25C32.2875 27.5567 32.5333 27.9933 32.5417 28.45C32.55 28.9067 32.3292 29.3467 31.9208 29.6667L27.0708 33.4733C26.275 34.1 25.0042 34.11 24.1917 33.5033C22.85 32.5033 21.0958 31.95 19.2542 31.95C15.6917 31.9667 12.65 33.7067 11.5292 36.2733C11.2333 36.9467 11.0917 37.6367 11.0917 38.3333C11.0917 39.0233 11.2333 39.7033 11.5167 40.3533C12.65 42.9433 15.6958 44.7 19.0958 44.72C20.8958 44.72 22.5 44.3767 23.7292 43.7267C24.2542 43.45 24.7167 43.1133 25.1 42.7267H19.0875C17.9375 42.7267 17.0042 41.98 17.0042 41.06V35.9267C17.0042 35.0067 17.9375 34.26 19.0875 34.26H35.125C36.1375 34.26 37.0042 34.8433 37.1792 35.64C37.3917 36.6233 37.5 37.63 37.5 38.64C37.5 43.0833 35.4583 47.0067 31.7583 49.6833C28.4583 52.0733 24.075 53.3333 19.0875 53.3333ZM19.2958 26.67C13.4542 26.67 8.36667 29.1433 5.74167 33.1267C4.7 34.7433 4.16667 36.5 4.16667 38.3333C4.16667 40.1733 4.7125 41.9767 5.74167 43.5433C5.74167 43.5467 5.74583 43.5533 5.75 43.56L5.79583 43.6333C8.38333 47.5533 13.4542 50 19.0167 50C23.025 50 26.4417 49.0367 28.9625 47.2133C31.7792 45.1733 33.3333 42.13 33.3333 38.64C33.3333 38.2933 33.3167 37.9433 33.2875 37.5967H21.1708V39.3967H28.2708C28.8875 39.3967 29.475 39.6167 29.8708 39.9967C30.2667 40.3767 30.4292 40.8767 30.3167 41.3633C29.8333 43.46 28.2667 45.3367 26.0167 46.5133C24.1167 47.52 21.7167 48.0533 19.0833 48.0533C13.9125 48.0233 9.29583 45.3733 7.57917 41.4533C7.14167 40.4433 6.92083 39.3967 6.92083 38.3333C6.92083 37.26 7.14583 36.1833 7.575 35.22C9.29167 31.28 13.9083 28.6433 19.075 28.6167C21.4375 28.6167 23.6125 29.1267 25.45 30.0767L27.3125 28.6133C24.9542 27.35 22.175 26.67 19.2958 26.67ZM43.75 51.6667C42.6 51.6667 41.6667 50.92 41.6667 50V26.6667C41.6667 25.7467 42.6 25 43.75 25H52.0833C57.825 25 62.5 28.74 62.5 33.3333C62.5 37.9267 57.825 41.6667 52.0833 41.6667H45.8333V50C45.8333 50.92 44.9 51.6667 43.75 51.6667ZM45.8333 38.3333H52.0833C55.5292 38.3333 58.3333 36.09 58.3333 33.3333C58.3333 30.5767 55.5292 28.3333 52.0833 28.3333H45.8333V38.3333ZM79.1667 48.31H70.8333C67.3875 48.31 64.5833 46.0667 64.5833 43.31C64.5833 40.5533 67.3875 38.31 70.8333 38.31H77.0833V36.6433C77.0833 35.7233 76.15 34.9767 75 34.9767H70.8333C69.6833 34.9767 68.75 35.7233 68.75 36.6433C68.75 37.5633 67.8167 38.31 66.6667 38.31C65.5167 38.31 64.5833 37.5633 64.5833 36.6433C64.5833 33.8867 67.3875 31.6433 70.8333 31.6433H75C78.4458 31.6433 81.25 33.8867 81.25 36.6433V46.6433C81.25 47.5667 80.3208 48.31 79.1667 48.31ZM70.8333 41.6433C69.6833 41.6433 68.75 42.39 68.75 43.31C68.75 44.23 69.6833 44.9767 70.8333 44.9767H77.0833V41.6433H70.8333ZM91.6667 45C90.9042 45 90.175 44.6667 89.8042 44.0867L83.5542 34.21C83.0333 33.3867 83.4458 32.3867 84.4708 31.97C85.5 31.55 86.75 31.8833 87.2708 32.7033L93.5208 42.58C94.0417 43.4033 93.6292 44.4033 92.6042 44.82C92.3042 44.9433 91.9833 45 91.6667 45Z" fill="white"/>
<path d="M86.5668 53.1567C86.2543 53.1567 85.9376 53.1 85.6376 52.98C84.6084 52.5667 84.1918 51.5667 84.7043 50.7433L96.0543 32.5867C96.5709 31.7633 97.8209 31.4333 98.8501 31.84C99.8793 32.2533 100.296 33.2533 99.7834 34.0767L88.4334 52.2333C88.0668 52.82 87.3293 53.1567 86.5668 53.1567Z" fill="white"/>
</g>
<defs>
<clipPath id="clip0_3_10">
<rect width="100" height="80" fill="white"/>
</clipPath>
</defs>
</svg>
