<svg width="1580" height="1231" viewBox="0 0 1580 1231" fill="none" xmlns="http://www.w3.org/2000/svg">
<g clip-path="url(#clip0_9_2)">
<mask id="mask0_9_2" style="mask-type:luminance" maskUnits="userSpaceOnUse" x="0" y="0" width="1580" height="1231">
<path d="M1580 0H0V1231H1580V0Z" fill="white"/>
</mask>
<g mask="url(#mask0_9_2)">
<path d="M239.971 990.267C239.971 1064.7 192.956 1090.69 134.965 1090.69C133.614 1090.69 132.271 1090.67 130.936 1090.64C128.25 1090.58 125.586 1090.47 122.959 1090.3C70.6162 1086.81 29.9504 1059.48 29.9504 990.267C29.9504 918.641 127.192 828.254 134.527 821.545L134.541 821.537C134.819 821.278 134.965 821.147 134.965 821.147C134.965 821.147 239.971 915.831 239.971 990.267Z" fill="#2E8F66"/>
<path d="M131.133 1079.3L169.543 1028.79L131.038 1084.84L130.936 1090.64C128.25 1090.58 125.586 1090.47 122.959 1090.3L127.097 1015.83L127.068 1015.25L127.141 1015.15L127.528 1008.11L88.9274 951.92L127.644 1002.84L127.739 1004.33L130.87 948.065L97.8239 890.005L131.272 938.181L134.527 821.545L134.541 821.147V821.537L134.001 913.516L166.894 877.051L133.862 921.434L132.994 971.81L163.712 923.47L132.863 979.227L132.381 1007.23L176.973 939.941L132.213 1017.01L131.133 1079.3Z" fill="#F2F2F2"/>
<g opacity="0.7">
<path opacity="0.7" d="M1457.91 468.574V450.649H1362.68V533.555C1362.68 538.189 1364.64 542.634 1368.12 545.912C1371.61 549.19 1376.33 551.031 1381.25 551.031H1439.34C1444.27 551.031 1448.99 549.19 1452.48 545.912C1455.96 542.634 1457.91 538.189 1457.91 533.555V515.179C1464.48 515.179 1470.78 512.725 1475.42 508.356C1480.07 503.986 1482.67 498.059 1482.67 491.876C1482.67 485.696 1480.07 479.77 1475.42 475.4C1470.78 471.03 1464.48 468.574 1457.91 468.574ZM1457.91 506.217V477.539C1461.96 477.539 1465.83 479.048 1468.69 481.739C1471.55 484.426 1473.15 488.075 1473.15 491.876C1473.15 495.681 1471.55 499.329 1468.69 502.017C1465.83 504.707 1461.96 506.217 1457.91 506.217Z" fill="url(#paint0_linear_9_2)"/>
</g>
<path d="M1454.85 471.381C1450.38 471.381 1446.01 472.629 1442.29 474.965C1438.57 477.305 1435.68 480.627 1433.97 484.515C1432.25 488.403 1431.81 492.681 1432.68 496.809C1433.55 500.936 1435.7 504.727 1438.87 507.701C1442.03 510.678 1446.06 512.703 1450.44 513.525C1454.82 514.346 1459.37 513.923 1463.5 512.313C1467.63 510.703 1471.16 507.977 1473.65 504.479C1476.13 500.978 1477.46 496.864 1477.46 492.656C1477.46 487.014 1475.08 481.602 1470.84 477.611C1466.6 473.623 1460.85 471.381 1454.85 471.381ZM1454.85 505.749C1452.1 505.749 1449.41 504.983 1447.12 503.543C1444.83 502.106 1443.05 500.059 1442 497.667C1440.95 495.274 1440.67 492.642 1441.21 490.102C1441.74 487.562 1443.07 485.228 1445.01 483.399C1446.96 481.569 1449.44 480.321 1452.14 479.814C1454.83 479.31 1457.63 479.569 1460.17 480.561C1462.72 481.552 1464.89 483.229 1466.42 485.382C1467.95 487.537 1468.76 490.066 1468.76 492.656C1468.76 496.129 1467.3 499.46 1464.69 501.917C1462.08 504.37 1458.54 505.749 1454.85 505.749Z" fill="#6C63FF"/>
<path opacity="0.1" d="M1454.85 471.381C1450.38 471.381 1446.01 472.629 1442.29 474.965C1438.57 477.305 1435.68 480.627 1433.97 484.515C1432.25 488.403 1431.81 492.681 1432.68 496.809C1433.55 500.936 1435.7 504.727 1438.87 507.701C1442.03 510.678 1446.06 512.703 1450.44 513.525C1454.82 514.346 1459.37 513.923 1463.5 512.313C1467.63 510.703 1471.16 507.977 1473.65 504.479C1476.13 500.978 1477.46 496.864 1477.46 492.656C1477.46 487.014 1475.08 481.602 1470.84 477.611C1466.6 473.623 1460.85 471.381 1454.85 471.381ZM1454.85 505.749C1452.1 505.749 1449.41 504.983 1447.12 503.543C1444.83 502.106 1443.05 500.059 1442 497.667C1440.95 495.274 1440.67 492.642 1441.21 490.102C1441.74 487.562 1443.07 485.228 1445.01 483.399C1446.96 481.569 1449.44 480.321 1452.14 479.814C1454.83 479.31 1457.63 479.569 1460.17 480.561C1462.72 481.552 1464.89 483.229 1466.42 485.382C1467.95 487.537 1468.76 490.066 1468.76 492.656C1468.76 496.129 1467.3 499.46 1464.69 501.917C1462.08 504.37 1458.54 505.749 1454.85 505.749Z" fill="black"/>
<path d="M1367.9 455.013H1454.85V530.625C1454.85 534.881 1453.06 538.961 1449.86 541.969C1446.66 544.977 1442.33 546.667 1437.81 546.667H1384.94C1380.43 546.667 1376.09 544.977 1372.89 541.969C1369.7 538.961 1367.9 534.881 1367.9 530.625V455.013Z" fill="#6C63FF"/>
<path opacity="0.1" d="M1439.2 455.013V530.709C1439.2 534.942 1437.41 539 1434.23 541.994C1431.05 544.985 1426.74 546.667 1422.25 546.667H1430.94C1435.44 546.667 1439.75 544.985 1442.93 541.994C1446.11 539 1447.9 534.942 1447.9 530.709V455.013H1439.2Z" fill="black"/>
<path d="M1385.06 394.006C1384.32 394.029 1383.59 394.204 1382.92 394.522C1382.26 394.839 1381.68 395.288 1381.22 395.842C1380.08 397.786 1382.14 399.98 1384.03 401.317C1387.52 403.787 1391.19 406.213 1393.56 409.661C1395.93 413.109 1396.67 417.922 1394.08 421.225C1390.7 425.542 1382.63 426.469 1381.85 431.78C1381.35 435.189 1384.49 438.097 1387.66 439.807C1395.49 444.029 1405.59 445.157 1411.26 451.763C1413.61 447.223 1418.85 444.597 1424.09 443.475C1429.32 442.355 1434.76 442.439 1440.06 441.678C1440.93 441.662 1441.78 441.456 1442.54 441.074C1443.31 440.69 1443.97 440.144 1444.47 439.478C1445.95 436.646 1441.73 433.248 1443.18 430.404C1444.29 428.24 1447.56 428.407 1449.94 427.541C1453.82 426.129 1455.41 421.434 1454.31 417.66C1453.21 413.886 1450.1 410.937 1446.84 408.519C1438.02 402.002 1427.43 398.17 1416.71 395.413C1411.73 394.132 1405.88 392.121 1400.7 391.929C1395.71 391.739 1390.01 393.21 1385.06 394.006Z" fill="#EEEEEE"/>
<path d="M774.789 565.993L592.982 1099.05" stroke="#873F3F" stroke-width="8" stroke-miterlimit="10"/>
<g opacity="0.7">
<path opacity="0.7" d="M915.651 1159.09C893.286 1160.31 873.364 1177.94 873.364 1177.94L863.73 1155.45L862.943 1155.69C867.651 1136.3 963.404 736.614 867.55 702.157C793.894 675.68 715.77 642.913 654.561 644.144V549.725H740.372V546.361H808.309C821.331 537.607 802.409 531.586 781.26 527.823C782.121 526.896 782.881 525.888 783.526 524.813L892.336 341.087C892.336 341.087 917.365 302.389 901.275 283.879C885.185 265.372 861.943 330.991 861.943 330.991L772.555 452.136C772.555 452.136 682.335 363.638 624.943 319.628C618.573 313.688 611.389 308.577 603.578 304.43C593.101 297.76 585.171 294.304 581.26 295.657C581.221 295.671 581.189 295.696 581.15 295.71C572.451 293.443 563.468 292.296 554.444 292.293H547.292V278.488C563.311 273.509 577.966 265.265 590.213 254.344C602.459 243.424 611.993 230.095 618.138 215.308C628.225 199.588 634.382 181.916 636.151 163.628C637.921 145.339 635.252 126.912 628.349 109.736C629.414 109.617 630.441 109.283 631.358 108.755C634.595 106.793 634.917 102.502 634.604 98.8902C633.429 86.7671 629.136 75.0957 622.091 64.8854C615.049 54.6748 605.471 46.2327 594.184 40.2885C585.124 35.6269 574.75 32.4151 568.072 25.0065C562.332 18.6405 559.921 9.73693 552.976 4.54275C544.724 -1.62805 532.806 -0.567208 522.681 2.18628C511.414 5.25434 500.739 9.99499 491.06 16.2294C480.11 23.2887 470.225 32.358 457.617 36.2652C448.658 39.0416 438.944 38.9862 429.929 41.5947C423.008 43.6579 416.7 47.2166 411.504 51.9858C406.309 56.7549 402.37 62.6025 400.006 69.0605C397.71 75.9984 396.84 83.2841 397.447 90.5281C391.964 99.1531 387.647 108.39 384.603 118.023C383.928 118.366 383.251 118.702 382.582 119.055L384.544 118.226C377.706 139.949 377.478 163.041 383.887 184.879C390.296 206.718 403.086 226.426 420.804 241.766C434.802 258.918 453.957 271.713 475.781 278.488V295.189C460.212 298.35 445.356 304.076 431.905 312.103L431.884 312.081C431.884 312.081 430.745 312.744 428.79 313.98C428.594 314.106 428.399 314.228 428.204 314.353C414.975 322.803 370.646 353.679 372.143 387.044C372.084 388.328 372.093 389.614 372.167 390.904C369.747 400.546 368.522 410.422 368.516 420.328V662.459C368.48 689.212 378.034 715.197 395.63 736.208C358.323 744.078 334.546 755.982 334.546 769.3C334.735 770.417 334.735 771.55 334.546 772.667C334.546 796.362 409.785 815.571 502.6 815.571C513.82 815.571 524.782 815.287 535.386 814.752L640.258 894.653L472.207 1148.72C472.207 1148.72 416.786 1189.1 459.691 1202.56C502.6 1216.02 590.201 1226.12 590.201 1226.12C590.201 1226.12 604.501 1202.56 584.837 1192.47C565.17 1182.37 538.354 1187.42 538.354 1187.42L541.928 1167.23C541.928 1167.23 833.338 931.669 772.555 850.905C760.924 835.453 749.296 819.512 737.567 803.818L783.44 807.753L793.879 1177.53L795.184 1177.13C792.565 1184.4 774.031 1239.22 815.111 1229.95C859.091 1220.01 939.112 1184.98 939.112 1184.98C939.112 1184.98 938.014 1157.87 915.651 1159.09ZM740.372 522.805L654.561 499.357V430.262L747.828 523.445C743.245 523.013 740.372 522.805 740.372 522.805Z" fill="url(#paint1_linear_9_2)"/>
</g>
<path d="M510.819 281.364C580.333 281.364 636.687 228.328 636.687 162.906C636.687 97.4835 580.333 44.448 510.819 44.448C441.305 44.448 384.955 97.4835 384.955 162.906C384.955 228.328 441.305 281.364 510.819 281.364Z" fill="black"/>
<path d="M654.167 434.373L750.222 530.338C752.243 532.357 754.743 533.9 757.518 534.842C760.294 535.783 763.267 536.095 766.194 535.752C769.12 535.413 771.922 534.424 774.369 532.873C776.813 531.321 778.836 529.249 780.274 526.826L886.667 347.173L856.949 337.302L769.543 455.76C769.543 455.76 605.451 294.794 582.493 302.754C559.536 310.711 654.167 434.373 654.167 434.373Z" fill="#F6E05E"/>
<path d="M470.612 766.712L329.013 1112.21" stroke="#BDBDBD" stroke-width="5" stroke-miterlimit="10"/>
<path d="M540.538 766.712L682.137 1112.21" stroke="#BDBDBD" stroke-width="5" stroke-miterlimit="10"/>
<path d="M505.576 811.134C596.329 811.134 669.899 792.352 669.899 769.18C669.899 746.008 596.329 727.226 505.576 727.226C414.821 727.226 341.25 746.008 341.25 769.18C341.25 792.352 414.821 811.134 505.576 811.134Z" fill="#B84733"/>
<path d="M505.576 807.842C596.329 807.842 669.899 789.06 669.899 765.891C669.899 742.719 596.329 723.937 505.576 723.937C414.821 723.937 341.25 742.719 341.25 765.891C341.25 789.06 414.821 807.842 505.576 807.842Z" fill="#F55F44"/>
<path d="M436.429 842.622L591.473 887.584" stroke="#BDBDBD" stroke-width="5" stroke-miterlimit="10"/>
<path d="M574.721 842.622L419.679 887.584" stroke="#BDBDBD" stroke-width="5" stroke-miterlimit="10"/>
<path d="M507.488 299.462H556.272C582.236 299.462 607.134 309.168 625.494 326.446C643.853 343.725 654.167 367.161 654.167 391.594V635.093H374.466V424.656C374.466 391.452 388.482 359.608 413.427 336.13C438.373 312.652 472.21 299.462 507.488 299.462Z" fill="#F6E05E"/>
<path d="M374.466 635.093H654.167V778.229H498.582C465.665 778.229 434.095 765.922 410.818 744.014C387.541 722.11 374.466 692.396 374.466 661.417V635.093Z" fill="#39447A"/>
<path opacity="0.05" d="M378.244 398.242L549.278 551.184H738.076V528.152L575.502 483.73L436.429 322.099C436.429 322.099 373.279 358.82 378.244 398.242Z" fill="black"/>
<path d="M378.244 394.95L549.278 547.895H738.076V524.86L575.502 480.438L436.429 318.81C436.429 318.81 373.279 355.531 378.244 394.95Z" fill="#F6E05E"/>
<path d="M738.076 524.86C738.076 524.86 828.979 531.441 804.507 547.895H738.076V524.86Z" fill="#FDA57D"/>
<path d="M856.949 337.302C856.949 337.302 879.675 273.138 895.41 291.235C911.142 309.332 886.667 347.173 886.667 347.173L856.949 337.302Z" fill="#FDA57D"/>
<path opacity="0.05" d="M374.466 635.093V642.771L654.167 643.317V635.093H374.466Z" fill="black"/>
<path d="M592.041 787.35L780.189 803.489L790.396 1165.07L857.754 1144.43C857.754 1144.43 958.492 734.765 862.431 700.236C766.371 665.704 662.535 620.232 600.542 657.29C538.546 694.348 592.041 787.35 592.041 787.35Z" fill="#39447A"/>
<path opacity="0.1" d="M603.471 676.223C603.471 676.223 706.612 725.58 720.595 781.521L603.471 676.223Z" fill="black"/>
<path d="M493.342 776.583L640.181 888.462L475.858 1136.89L544.035 1154.99C544.035 1154.99 828.979 924.656 769.543 845.683C710.106 766.712 650.67 674.58 577.25 672.934C503.828 671.288 493.342 776.583 493.342 776.583Z" fill="#39447A"/>
<path opacity="0.05" d="M724.093 412.984L760.803 472.214L769.543 455.76L724.093 412.984Z" fill="black"/>
<path d="M475.858 1136.89C475.858 1136.89 421.665 1176.38 463.621 1189.54C505.576 1202.7 591.234 1212.57 591.234 1212.57C591.234 1212.57 605.22 1189.54 585.991 1179.67C566.761 1169.8 540.538 1174.73 540.538 1174.73L544.035 1154.99L475.858 1136.89Z" fill="#333333"/>
<path d="M791.959 1163.9C791.959 1163.9 768.155 1226.03 811.158 1216.32C854.162 1206.61 932.407 1172.35 932.407 1172.35C932.407 1172.35 931.333 1145.84 909.468 1147.03C887.599 1148.23 868.118 1165.47 868.118 1165.47L858.697 1143.47L791.959 1163.9Z" fill="#333333"/>
<path d="M514.317 241.878C495.007 241.878 479.352 256.61 479.352 274.783V307.689C479.352 325.861 495.007 340.592 514.317 340.592C533.626 340.592 549.278 325.861 549.278 307.689V274.783C549.278 256.61 533.626 241.878 514.317 241.878Z" fill="#FDA57D"/>
<path opacity="0.05" d="M514.317 245.168C505.044 245.168 496.15 248.635 489.593 254.806C483.036 260.977 479.352 269.346 479.352 278.073V289.254C502.064 296.284 526.569 296.284 549.278 289.254V278.073C549.278 269.346 545.594 260.977 539.037 254.806C532.481 248.635 523.59 245.168 514.317 245.168Z" fill="black"/>
<path d="M514.317 291.235C576.105 291.235 626.198 244.093 626.198 185.94C626.198 127.786 576.105 80.6436 514.317 80.6436C452.525 80.6436 402.435 127.786 402.435 185.94C402.435 244.093 452.525 291.235 514.317 291.235Z" fill="#FDA57D"/>
<path opacity="0.05" d="M402.435 181.162C402.435 181.162 430.405 187.945 446.14 158.027C461.872 128.108 474.109 111.789 538.789 129.468C603.471 147.147 616.481 149.304 619.591 132.586C621.715 121.163 598.716 93.4145 583.937 76.9862C576.727 68.9719 564.962 64.1913 552.388 64.1913H479.352L435.651 83.2303L402.435 110.429L395.444 147.147L402.435 181.162Z" fill="black"/>
<path d="M402.435 177.871C402.435 177.871 430.405 184.655 446.14 154.736C461.872 124.818 474.109 108.498 538.789 126.178C603.471 143.857 616.481 146.014 619.591 129.296C621.715 117.872 598.716 90.124 583.937 73.696C576.727 65.6817 564.962 60.9008 552.388 60.9008H479.352L435.651 79.9398L402.435 107.139L395.444 143.857L402.435 177.871Z" fill="black"/>
<path d="M413.797 199.101C420.073 199.101 425.162 189.526 425.162 177.713C425.162 165.901 420.073 156.325 413.797 156.325C407.522 156.325 402.435 165.901 402.435 177.713C402.435 189.526 407.522 199.101 413.797 199.101Z" fill="#FDA57D"/>
<path d="M405.678 122.679C403.083 108.906 400.536 94.443 405.258 81.18C407.569 74.8654 411.421 69.1474 416.502 64.484C421.582 59.8204 427.751 56.3408 434.515 54.3233C443.332 51.773 452.833 51.827 461.591 49.1121C473.92 45.2916 483.584 36.4234 494.294 29.5206C503.757 23.4245 514.195 18.7889 525.211 15.7889C535.111 13.0965 546.766 12.0592 554.834 18.0932C561.625 23.1722 563.983 31.8781 569.596 38.103C576.126 45.3473 586.272 48.4877 595.127 53.046C606.167 58.8585 615.531 67.1134 622.419 77.0973C629.305 87.0815 633.506 98.4939 634.654 110.348C634.959 113.88 634.645 118.076 631.479 119.994C629.512 120.935 627.295 121.316 625.103 121.089C580.39 120.488 535.62 119.884 491.09 116.021C477.246 114.82 463.375 113.302 449.483 113.798C427.985 114.587 406.989 120.162 388.221 130.066" fill="black"/>
<path d="M212.051 1061.63H57.3108C25.659 1061.63 0 1085.77 0 1115.56C0 1145.35 25.659 1169.5 57.3108 1169.5H212.051C243.703 1169.5 269.362 1145.35 269.362 1115.56C269.362 1085.77 243.703 1061.63 212.051 1061.63Z" fill="#8B4444"/>
<path d="M1006.71 676.499C1007.39 676.476 1008.03 676.206 1008.5 675.747C1008.97 675.284 1009.24 674.669 1009.24 674.031C1009.24 673.39 1008.97 672.775 1008.5 672.315C1008.03 671.853 1007.39 671.583 1006.71 671.563C1006.03 671.583 1005.38 671.853 1004.91 672.315C1004.44 672.775 1004.17 673.39 1004.17 674.031C1004.17 674.669 1004.44 675.284 1004.91 675.747C1005.38 676.206 1006.03 676.476 1006.71 676.499Z" fill="url(#paint2_linear_9_2)"/>
<path d="M1391.46 565.993L1573.27 1174.88" stroke="#873F3F" stroke-width="8" stroke-miterlimit="10"/>
<path d="M1574.01 548.16H592.246V584.168H1574.01V548.16Z" fill="#873F3F"/>
<path d="M983.689 539.668H845.587C839.311 539.668 834.225 544.456 834.225 550.363C834.225 556.267 839.311 561.057 845.587 561.057H983.689C989.965 561.057 995.051 556.267 995.051 550.363C995.051 544.456 989.965 539.668 983.689 539.668Z" fill="#535461"/>
<g opacity="0.7">
<path opacity="0.7" d="M1282.52 301.208H981.452C954.205 301.208 932.12 321.993 932.12 347.635V514.895C932.12 540.537 954.205 561.322 981.452 561.322H1282.52C1309.76 561.322 1331.85 540.537 1331.85 514.895V347.635C1331.85 321.993 1309.76 301.208 1282.52 301.208Z" fill="url(#paint3_linear_9_2)"/>
</g>
<path d="M1270.99 306.007H986.157C960.249 306.007 939.245 325.772 939.245 350.155V517.173C939.245 541.556 960.249 561.322 986.157 561.322H1270.99C1296.9 561.322 1317.91 541.556 1317.91 517.173V350.155C1317.91 325.772 1296.9 306.007 1270.99 306.007Z" fill="#3E3F49"/>
<path d="M1276.24 306.007H991.403C965.492 306.007 944.491 325.772 944.491 350.155V517.173C944.491 541.556 965.492 561.322 991.403 561.322H1276.24C1302.15 561.322 1323.15 541.556 1323.15 517.173V350.155C1323.15 325.772 1302.15 306.007 1276.24 306.007Z" fill="#535461"/>
<path d="M1151.51 443.422C1158.27 443.422 1163.75 438.264 1163.75 431.906C1163.75 425.544 1158.27 420.386 1151.51 420.386C1144.75 420.386 1139.27 425.544 1139.27 431.906C1139.27 438.264 1144.75 443.422 1151.51 443.422Z" fill="#E0E0E0"/>
</g>
<mask id="path-49-inside-1_9_2" fill="white">
<path d="M1135 488C1107.39 488 1085 465.614 1085 438V438C1085 410.386 1107.39 388 1135 388V388C1162.61 388 1185 410.386 1185 438V438C1185 465.614 1162.61 488 1135 488V488Z"/>
</mask>
<path d="M1135 488C1107.39 488 1085 465.614 1085 438V438C1085 410.386 1107.39 388 1135 388V388C1162.61 388 1185 410.386 1185 438V438C1185 465.614 1162.61 488 1135 488V488Z" fill="white"/>
<g clip-path="url(#clip1_9_2)">
<path d="M1108.8 457.364C1110.07 457.376 1111.3 456.628 1112.21 455.283C1113.13 453.938 1113.65 452.107 1113.68 450.19L1113.88 432.185C1113.88 430.896 1114.06 429.619 1114.39 428.426C1114.72 427.234 1115.2 426.15 1115.81 425.239C1116.42 424.327 1117.15 423.606 1117.94 423.118C1118.74 422.629 1119.59 422.382 1120.44 422.392C1121.3 422.402 1122.14 422.668 1122.92 423.175C1123.71 423.682 1124.41 424.419 1125 425.345C1125.59 426.27 1126.05 427.364 1126.35 428.564C1126.66 429.764 1126.8 431.045 1126.77 432.333L1126.56 450.339C1126.54 452.256 1127.03 454.1 1127.91 455.466C1128.79 456.832 1130.01 457.607 1131.28 457.622C1132.55 457.636 1133.78 456.889 1134.69 455.544C1135.61 454.199 1136.14 452.366 1136.16 450.449L1136.39 430.538C1136.42 427.364 1136.04 424.216 1135.27 421.275C1134.5 418.333 1133.35 415.655 1131.89 413.394C1130.42 411.132 1128.68 409.332 1126.74 408.095C1124.81 406.858 1122.73 406.209 1120.63 406.185C1118.52 406.16 1116.43 406.762 1114.47 407.954C1112.51 409.146 1110.72 410.906 1109.21 413.133C1107.69 415.36 1106.48 418.011 1105.64 420.933C1104.8 423.856 1104.35 426.995 1104.31 430.168L1104.08 450.08C1104.06 451.996 1104.55 453.84 1105.43 455.205C1106.31 456.571 1107.52 457.347 1108.8 457.364ZM1106.41 430.194C1106.47 424.623 1108.01 419.297 1110.66 415.388C1113.32 411.478 1116.89 409.306 1120.59 409.348C1124.29 409.391 1127.81 411.645 1130.38 415.614C1132.95 419.584 1134.35 424.944 1134.29 430.515L1134.06 450.425C1134.04 451.497 1133.74 452.519 1133.23 453.268C1132.71 454.017 1132.03 454.433 1131.31 454.425C1130.6 454.416 1129.93 453.985 1129.43 453.224C1128.93 452.463 1128.66 451.435 1128.66 450.363L1128.87 432.358C1128.91 428.943 1128.05 425.658 1126.47 423.225C1124.9 420.792 1122.74 419.411 1120.48 419.385C1118.21 419.359 1116.02 420.69 1114.39 423.086C1112.76 425.482 1111.82 428.746 1111.78 432.161L1111.58 450.166C1111.56 451.244 1111.27 452.275 1110.75 453.032C1110.24 453.789 1109.55 454.209 1108.83 454.201C1108.12 454.193 1107.44 453.756 1106.94 452.988C1106.44 452.22 1106.17 451.182 1106.18 450.104L1106.41 430.194Z" fill="#F7DF76"/>
<path d="M1131.6 457.626C1132.88 457.639 1134.1 456.89 1135.02 455.546C1135.93 454.201 1136.46 452.369 1136.48 450.453L1136.69 432.448C1136.69 431.159 1136.86 429.881 1137.2 428.689C1137.53 427.496 1138.01 426.413 1138.62 425.502C1139.23 424.59 1139.96 423.869 1140.75 423.38C1141.54 422.892 1142.39 422.645 1143.25 422.655C1144.1 422.665 1144.95 422.931 1145.73 423.438C1146.51 423.944 1147.22 424.682 1147.81 425.607C1148.4 426.533 1148.86 427.627 1149.16 428.827C1149.47 430.027 1149.61 431.308 1149.58 432.596L1149.37 450.601C1149.35 452.518 1149.84 454.362 1150.72 455.728C1151.6 457.094 1152.81 457.87 1154.09 457.884C1155.36 457.899 1156.59 457.152 1157.5 455.806C1158.42 454.461 1158.94 452.629 1158.97 450.712L1159.19 430.8C1159.23 427.626 1158.85 424.479 1158.08 421.537C1157.31 418.596 1156.16 415.918 1154.69 413.656C1153.23 411.395 1151.48 409.594 1149.55 408.357C1147.62 407.121 1145.54 406.471 1143.44 406.447C1141.33 406.423 1139.24 407.024 1137.28 408.216C1135.32 409.408 1133.53 411.168 1132.01 413.395C1130.5 415.623 1129.29 418.273 1128.45 421.196C1127.61 424.119 1127.16 427.257 1127.12 430.431L1126.89 450.342C1126.87 452.259 1127.36 454.102 1128.24 455.468C1129.12 456.833 1130.33 457.609 1131.6 457.626ZM1129.22 430.457C1129.28 424.885 1130.81 419.559 1133.47 415.65C1136.13 411.741 1139.7 409.568 1143.4 409.611C1147.1 409.654 1150.62 411.908 1153.18 415.877C1155.75 419.846 1157.16 425.206 1157.1 430.777L1156.87 450.688C1156.85 451.76 1156.55 452.781 1156.04 453.531C1155.52 454.28 1154.83 454.695 1154.12 454.687C1153.41 454.679 1152.73 454.248 1152.24 453.487C1151.74 452.726 1151.47 451.698 1151.47 450.625L1151.68 432.62C1151.72 429.206 1150.86 425.92 1149.28 423.488C1147.71 421.055 1145.55 419.673 1143.28 419.647C1141.02 419.621 1138.83 420.952 1137.2 423.348C1135.57 425.744 1134.63 429.009 1134.59 432.424L1134.39 450.429C1134.37 451.507 1134.08 452.538 1133.56 453.294C1133.05 454.051 1132.36 454.472 1131.64 454.463C1130.93 454.455 1130.24 454.019 1129.75 453.25C1129.25 452.482 1128.98 451.445 1128.99 450.367L1129.22 430.457Z" fill="#F7E36E"/>
</g>
<path d="M1085 488V388V488ZM1140 388C1170.38 388 1195 412.624 1195 443C1195 473.376 1170.38 498 1140 498L1135 478C1157.09 478 1175 460.091 1175 438C1175 410.386 1157.09 388 1135 388H1140ZM1195 443C1195 473.376 1170.38 498 1140 498C1109.62 498 1085 473.376 1085 443V438C1085 460.091 1107.39 478 1135 478C1157.09 478 1175 460.091 1175 438L1195 443ZM1085 388H1185H1085Z" fill="#F7DF76" mask="url(#path-49-inside-1_9_2)"/>
</g>
<defs>
<linearGradient id="paint0_linear_9_2" x1="1422.68" y1="551.031" x2="1422.68" y2="450.649" gradientUnits="userSpaceOnUse">
<stop stop-color="#808080" stop-opacity="0.25"/>
<stop offset="0.53514" stop-color="#808080" stop-opacity="0.12"/>
<stop offset="1" stop-color="#808080" stop-opacity="0.1"/>
</linearGradient>
<linearGradient id="paint1_linear_9_2" x1="311139" y1="1.01448e+06" x2="311139" y2="93423.5" gradientUnits="userSpaceOnUse">
<stop stop-color="#808080" stop-opacity="0.25"/>
<stop offset="0.53514" stop-color="#808080" stop-opacity="0.12"/>
<stop offset="1" stop-color="#808080" stop-opacity="0.1"/>
</linearGradient>
<linearGradient id="paint2_linear_9_2" x1="4680.3" y1="3075.62" x2="4680.3" y2="3060.83" gradientUnits="userSpaceOnUse">
<stop stop-color="#808080" stop-opacity="0.25"/>
<stop offset="0.53514" stop-color="#808080" stop-opacity="0.12"/>
<stop offset="1" stop-color="#808080" stop-opacity="0.1"/>
</linearGradient>
<linearGradient id="paint3_linear_9_2" x1="259771" y1="89047" x2="259771" y2="47922.4" gradientUnits="userSpaceOnUse">
<stop stop-color="#808080" stop-opacity="0.25"/>
<stop offset="0.53514" stop-color="#808080" stop-opacity="0.12"/>
<stop offset="1" stop-color="#808080" stop-opacity="0.1"/>
</linearGradient>
<clipPath id="clip0_9_2">
<rect width="1580" height="1231" fill="white"/>
</clipPath>
<clipPath id="clip1_9_2">
<rect width="54.8857" height="51.3119" fill="white" transform="translate(1104.59 406) rotate(0.659599)"/>
</clipPath>
</defs>
</svg>
