<svg width="201" height="255" viewBox="0 0 201 255" fill="none" xmlns="http://www.w3.org/2000/svg">
<rect opacity="0.75" x="4.5" y="120" width="37" height="6" fill="#FFD700"/>
<path d="M89.2891 55.0078C89.2891 47.5547 88.0234 40.9453 85.4922 35.1797C82.9609 29.3672 79.4688 24.5391 75.0156 20.6953C70.6094 16.8047 65.3594 13.9453 59.2656 12.1172C53.2188 10.2422 46.6797 9.51562 39.6484 9.9375V100.57C44.1484 100.711 48.5078 100.312 52.7266 99.375C56.9453 98.4375 60.8828 97.0312 64.5391 95.1562C68.2422 93.2344 71.5938 90.9141 74.5938 88.1953C77.6406 85.4766 80.2422 82.4062 82.3984 78.9844C84.6016 75.5625 86.2891 71.8359 87.4609 67.8047C88.6797 63.7734 89.2891 59.5078 89.2891 55.0078ZM96.6719 55.0078C96.6719 60.8203 95.8984 66.1641 94.3516 71.0391C92.8516 75.9141 90.7422 80.3203 88.0234 84.2578C85.3047 88.1953 82.0469 91.6406 78.25 94.5938C74.4531 97.5469 70.2578 100.031 65.6641 102.047C61.1172 104.016 56.2656 105.492 51.1094 106.477C45.9531 107.508 40.6328 108.023 35.1484 108.023C30.5547 108.023 26.3828 107.789 22.6328 107.32C18.9297 106.852 15.7188 106.336 13 105.773C10.3281 105.211 8.21875 104.695 6.67188 104.227C5.17188 103.711 4.35156 103.43 4.21094 103.383C3.50781 103.102 2.92188 102.656 2.45312 102.047C1.98438 101.391 1.75 100.688 1.75 99.9375C1.75 98.8594 2.14844 97.9688 2.94531 97.2656C3.74219 96.5625 4.60938 96.2109 5.54688 96.2109C5.78125 96.2109 5.99219 96.2344 6.17969 96.2812C6.36719 96.3281 6.57812 96.3984 6.8125 96.4922C7.42188 96.7266 8.14844 96.9609 8.99219 97.1953C10.3516 97.6172 12.3672 98.1094 15.0391 98.6719V12.5391C11.9453 13.1953 9.57812 13.7578 7.9375 14.2266C6.95312 14.5078 6.08594 14.7656 5.33594 15C5.10156 15.0937 4.89062 15.1641 4.70312 15.2109C4.51562 15.2578 4.30469 15.2812 4.07031 15.2812C2.99219 15.2812 2.125 14.9063 1.46875 14.1562C0.8125 13.3594 0.484375 12.4922 0.484375 11.5547C0.484375 10.7578 0.695312 10.0547 1.11719 9.44531C1.53906 8.78906 2.14844 8.34375 2.94531 8.10938C3.13281 8.0625 4.16406 7.75781 6.03906 7.19531C7.96094 6.58594 10.5156 5.95312 13.7031 5.29688C16.9375 4.59375 20.7109 3.98437 25.0234 3.46875C29.3359 2.90625 33.9766 2.625 38.9453 2.625C47.1953 2.625 54.8359 3.72656 61.8672 5.92969C68.8984 8.08594 74.9922 11.3438 80.1484 15.7031C85.3047 20.0625 89.3359 25.5234 92.2422 32.0859C95.1953 38.6484 96.6719 46.2891 96.6719 55.0078ZM149.828 62.25C149.031 62.25 148.305 62.2734 147.648 62.3203C146.992 62.3672 146.359 62.3906 145.75 62.3906V101.695H149.055C153.555 101.695 157.867 101.391 161.992 100.781C166.117 100.125 169.75 99.0234 172.891 97.4766C176.078 95.9297 178.609 93.8672 180.484 91.2891C182.406 88.7109 183.367 85.4531 183.367 81.5156C183.367 78.6562 182.805 76.1953 181.68 74.1328C180.602 72.0703 179.148 70.3359 177.32 68.9297C175.492 67.4766 173.383 66.3281 170.992 65.4844C168.648 64.5938 166.234 63.9141 163.75 63.4453C161.266 62.9766 158.805 62.6719 156.367 62.5312C153.977 62.3438 151.797 62.25 149.828 62.25ZM193.422 31.5938C193.422 28.2656 192.625 25.3359 191.031 22.8047C189.484 20.2734 187.422 18.0938 184.844 16.2656C182.266 14.4375 179.312 12.9375 175.984 11.7656C172.656 10.5469 169.211 9.60937 165.648 8.95312C162.133 8.25 158.641 7.80469 155.172 7.61719C151.703 7.42969 148.562 7.40625 145.75 7.54688V54.7266C148.281 54.7266 151.211 54.7266 154.539 54.7266C157.867 54.7266 161.289 54.5391 164.805 54.1641C168.367 53.7891 171.859 53.1797 175.281 52.3359C178.703 51.4922 181.75 50.2031 184.422 48.4688C187.094 46.7344 189.25 44.5078 190.891 41.7891C192.578 39.0703 193.422 35.6719 193.422 31.5938ZM200.805 31.5938C200.805 35.3438 200.148 38.7891 198.836 41.9297C197.57 45.0234 195.812 47.7656 193.562 50.1562C191.312 52.5 188.641 54.4453 185.547 55.9922C182.453 57.5391 179.078 58.6172 175.422 59.2266C177.766 60.0703 179.875 61.2188 181.75 62.6719C183.672 64.125 185.289 65.8125 186.602 67.7344C187.961 69.6094 188.992 71.7188 189.695 74.0625C190.445 76.3594 190.82 78.8438 190.82 81.5156C190.82 85.125 190.305 88.2891 189.273 91.0078C188.242 93.6797 186.766 96.0234 184.844 98.0391C182.969 100.008 180.719 101.672 178.094 103.031C175.469 104.344 172.586 105.398 169.445 106.195C166.305 107.039 162.93 107.672 159.32 108.094C155.758 108.562 152.055 108.867 148.211 109.008C141.93 109.055 136.539 108.797 132.039 108.234C127.539 107.719 123.812 107.133 120.859 106.477C117.953 105.82 115.773 105.211 114.32 104.648C112.867 104.039 112.07 103.688 111.93 103.594C110.57 102.938 109.891 101.812 109.891 100.219C109.891 99.2344 110.289 98.3906 111.086 97.6875C111.93 96.9844 112.797 96.6328 113.688 96.6328C113.969 96.6328 114.227 96.6562 114.461 96.7031C114.742 96.75 115 96.8203 115.234 96.9141C115.328 97.0078 115.914 97.2656 116.992 97.6875C118.07 98.1094 119.688 98.5781 121.844 99.0938C121.797 96.375 121.75 92.8359 121.703 88.4766C121.656 84.1172 121.586 79.2891 121.492 73.9922C121.445 68.6484 121.375 63.0469 121.281 57.1875C121.234 51.2812 121.188 45.4688 121.141 39.75C121.094 34.0312 121.047 28.5703 121 23.3672C120.953 18.1641 120.953 13.5938 121 9.65625C119.828 9.89062 118.703 10.1484 117.625 10.4297C116.594 10.7109 115.609 10.9922 114.672 11.2734C114.438 11.2734 114.25 11.2969 114.109 11.3438C113.969 11.3906 113.828 11.4141 113.688 11.4141C112.609 11.4141 111.695 11.0391 110.945 10.2891C110.242 9.49219 109.891 8.625 109.891 7.6875C109.891 6.89063 110.125 6.16406 110.594 5.50781C111.062 4.85156 111.695 4.35938 112.492 4.03125C116.477 2.90625 121.234 1.99219 126.766 1.28906C132.344 0.539062 138.344 0.164062 144.766 0.164062C148.469 0.164062 152.406 0.328125 156.578 0.65625C160.797 0.984375 164.969 1.59375 169.094 2.48438C173.266 3.32812 177.25 4.5 181.047 6C184.891 7.5 188.266 9.42188 191.172 11.7656C194.125 14.0625 196.469 16.8516 198.203 20.1328C199.938 23.3672 200.805 27.1875 200.805 31.5938Z" fill="black"/>
<path d="M28.082 18.1201C28.0749 18.0592 28.0695 17.9966 28.0659 17.9321C28.0623 17.8677 28.0605 17.8014 28.0605 17.7334H27.8618C27.7186 17.7334 27.5485 17.7441 27.3516 17.7656C27.1582 17.7871 26.9577 17.8211 26.75 17.8677C26.5423 17.9142 26.3364 17.9769 26.1323 18.0557C25.9282 18.1309 25.7456 18.224 25.5845 18.335C25.4233 18.4424 25.2926 18.5695 25.1924 18.7163C25.0957 18.8631 25.0474 19.0314 25.0474 19.2212C25.0474 19.3215 25.0706 19.4074 25.1172 19.479C25.1673 19.5506 25.2282 19.6097 25.2998 19.6562C25.375 19.6992 25.4574 19.7314 25.5469 19.7529C25.6364 19.7708 25.7223 19.7798 25.8047 19.7798C26.0589 19.7798 26.2988 19.7314 26.5244 19.6348C26.7536 19.5345 26.9648 19.4056 27.1582 19.248C27.3516 19.0869 27.5252 18.9079 27.6792 18.7109C27.8332 18.514 27.9674 18.3171 28.082 18.1201ZM30.6548 19.9785H30.6333C30.5724 19.9714 30.5098 19.9678 30.4453 19.9678C30.3809 19.9678 30.3182 19.9678 30.2573 19.9678C29.9207 19.9678 29.5967 19.9893 29.2852 20.0322C28.9772 20.0752 28.6675 20.1414 28.356 20.231C28.3452 20.231 28.3345 20.2327 28.3237 20.2363C28.313 20.2399 28.2987 20.2417 28.2808 20.2417C28.1984 20.2417 28.1304 20.2095 28.0767 20.145C28.0265 20.0841 28.0015 20.0215 28.0015 19.957V19.9141C28.0015 19.9069 28.0104 19.8353 28.0283 19.6992C28.0462 19.5596 28.0641 19.3662 28.082 19.1191C27.9281 19.291 27.7633 19.4521 27.5879 19.6025C27.416 19.7493 27.2334 19.8783 27.04 19.9893C26.8503 20.0967 26.6533 20.1808 26.4492 20.2417C26.2451 20.3062 26.0339 20.3384 25.8154 20.3384C25.6436 20.3384 25.4771 20.3115 25.3159 20.2578C25.1548 20.2077 25.0116 20.1343 24.8862 20.0376C24.7645 19.9409 24.666 19.8245 24.5908 19.6885C24.5192 19.5488 24.4834 19.3931 24.4834 19.2212C24.4834 18.9526 24.5407 18.7163 24.6553 18.5122C24.7734 18.3081 24.9274 18.1309 25.1172 17.9805C25.307 17.8265 25.5218 17.6994 25.7617 17.5991C26.0052 17.4953 26.2523 17.4129 26.5029 17.3521C26.7536 17.2876 26.9971 17.2428 27.2334 17.2178C27.4697 17.1891 27.6792 17.1748 27.8618 17.1748H27.9907C27.9907 16.9564 27.9513 16.7433 27.8726 16.5356C27.7974 16.328 27.6899 16.1436 27.5503 15.9824C27.4142 15.8213 27.2513 15.6924 27.0615 15.5957C26.8717 15.4954 26.6623 15.4453 26.4331 15.4453C26.2648 15.4453 26.1001 15.4937 25.939 15.5903C25.7778 15.6834 25.6346 15.8034 25.5093 15.9502C25.384 16.097 25.2819 16.2617 25.2031 16.4443C25.1279 16.627 25.0903 16.8042 25.0903 16.9761C25.0903 17.0477 25.0599 17.1086 24.999 17.1587C24.9417 17.2052 24.8773 17.2285 24.8057 17.2285C24.7269 17.2285 24.6589 17.1999 24.6016 17.1426C24.5443 17.0817 24.5156 17.0155 24.5156 16.9438C24.5156 16.772 24.5461 16.5929 24.6069 16.4067C24.6678 16.217 24.7555 16.0326 24.8701 15.8535C24.9883 15.6709 25.1297 15.499 25.2944 15.3379C25.4627 15.1768 25.6525 15.0353 25.8638 14.9136C26.0786 14.7882 26.3132 14.6898 26.5674 14.6182C26.8216 14.5465 27.092 14.5107 27.3784 14.5107C27.7795 14.5107 28.1214 14.5734 28.4043 14.6987C28.6908 14.8241 28.9289 14.9941 29.1187 15.209C29.312 15.4238 29.4642 15.6727 29.5752 15.9556C29.6862 16.2384 29.7703 16.5374 29.8276 16.8525C29.8849 17.1676 29.9207 17.4881 29.9351 17.814C29.953 18.1398 29.9619 18.4513 29.9619 18.7485C29.9619 18.8989 29.9601 19.0278 29.9565 19.1353C29.953 19.2427 29.9512 19.3322 29.9512 19.4038C30.0049 19.4038 30.0586 19.402 30.1123 19.3984C30.1696 19.3949 30.2251 19.3931 30.2788 19.3931C30.3397 19.3931 30.4023 19.3949 30.4668 19.3984C30.5348 19.402 30.6011 19.4038 30.6655 19.4038C30.7443 19.411 30.807 19.4414 30.8535 19.4951C30.9036 19.5488 30.9287 19.6151 30.9287 19.6938C30.9287 19.769 30.9019 19.8353 30.8481 19.8926C30.798 19.9499 30.7336 19.9785 30.6548 19.9785ZM32.9214 29.6772C32.9214 29.7417 32.8981 29.8008 32.8516 29.8545C32.8086 29.9082 32.7549 29.9404 32.6904 29.9512C32.429 30.0049 32.1569 30.0371 31.874 30.0479C31.7952 30.5599 31.7165 31.0146 31.6377 31.4121C31.5589 31.806 31.4766 32.1605 31.3906 32.4756C31.3083 32.7871 31.2223 33.0682 31.1328 33.3188C31.0433 33.5659 30.9484 33.7969 30.8481 34.0117C30.7479 34.223 30.6423 34.4253 30.5312 34.6187C30.4202 34.812 30.3003 35.0125 30.1714 35.2202C30.1427 35.2596 30.1087 35.2918 30.0693 35.3169C30.0335 35.342 29.9906 35.3545 29.9404 35.3545C29.8903 35.3545 29.8455 35.3438 29.8062 35.3223C29.7703 35.3008 29.7381 35.2739 29.7095 35.2417C29.3514 34.7941 29.056 34.3823 28.8232 34.0063C28.5941 33.6304 28.4168 33.3135 28.2915 33.0557C28.1232 33.4245 27.9513 33.7826 27.7759 34.1299C27.604 34.4772 27.4124 34.8192 27.2012 35.1558C27.1725 35.1951 27.1367 35.2256 27.0938 35.2471C27.0544 35.2721 27.0132 35.2847 26.9702 35.2847C26.8664 35.2847 26.7858 35.2453 26.7285 35.1665C26.4635 34.8013 26.2308 34.4378 26.0303 34.0762C25.8298 33.7145 25.6561 33.3636 25.5093 33.0234C25.3625 32.6833 25.2389 32.361 25.1387 32.0566C25.042 31.7523 24.9614 31.4712 24.897 31.2134C24.8361 30.9556 24.7896 30.73 24.7573 30.5366C24.7251 30.3397 24.7036 30.1803 24.6929 30.0586C24.6105 30.0514 24.5299 30.0461 24.4512 30.0425C24.376 30.0389 24.299 30.0335 24.2202 30.0264C24.1486 30.0156 24.0877 29.9834 24.0376 29.9297C23.991 29.876 23.9678 29.8133 23.9678 29.7417C23.9678 29.6593 23.9982 29.5931 24.0591 29.543C24.1235 29.4928 24.188 29.4678 24.2524 29.4678H24.2739C24.4422 29.4785 24.6141 29.4893 24.7896 29.5C24.9686 29.5072 25.153 29.5107 25.3428 29.5107C25.64 29.5107 25.9372 29.5018 26.2344 29.4839C26.5316 29.4624 26.8091 29.4355 27.0669 29.4033C27.0741 29.4033 27.0794 29.4015 27.083 29.3979C27.0902 29.3944 27.1009 29.3926 27.1152 29.3926C27.1976 29.3926 27.2638 29.423 27.314 29.4839C27.3641 29.5412 27.3892 29.6056 27.3892 29.6772C27.3892 29.7489 27.3659 29.8115 27.3193 29.8652C27.2764 29.9154 27.2191 29.944 27.1475 29.9512C27.0544 29.9691 26.9559 29.9834 26.8521 29.9941C26.7482 30.0049 26.6444 30.0156 26.5405 30.0264C26.5656 30.166 26.6032 30.3504 26.6533 30.5796C26.7035 30.8052 26.7697 31.0594 26.8521 31.3423C26.938 31.6216 27.0436 31.9188 27.1689 32.2339C27.2943 32.549 27.4447 32.8623 27.6201 33.1738C27.7419 32.9053 27.8529 32.6349 27.9531 32.3628C28.0534 32.0871 28.1411 31.8203 28.2163 31.5625C28.2951 31.3011 28.3595 31.0505 28.4097 30.8105C28.4598 30.5671 28.4938 30.3433 28.5117 30.1392C28.5189 30.0568 28.5511 29.9941 28.6084 29.9512C28.6657 29.9082 28.7284 29.8867 28.7964 29.8867C28.8573 29.8867 28.911 29.9046 28.9575 29.9404C29.0076 29.9762 29.0417 30.0246 29.0596 30.0854C29.2422 30.6476 29.4552 31.1901 29.6987 31.7129C29.9458 32.2357 30.2323 32.7513 30.5581 33.2598C30.6261 33.0843 30.6924 32.891 30.7568 32.6797C30.8213 32.4684 30.884 32.2339 30.9448 31.9761C31.0057 31.7147 31.0666 31.4246 31.1274 31.106C31.1883 30.7873 31.251 30.4346 31.3154 30.0479C31.0719 30.0479 30.8302 30.0264 30.5903 29.9834C30.5223 29.9762 30.465 29.9476 30.4185 29.8975C30.3719 29.8438 30.3486 29.7811 30.3486 29.7095C30.3486 29.6307 30.3773 29.5645 30.4346 29.5107C30.4954 29.4535 30.5617 29.4248 30.6333 29.4248C30.6405 29.4248 30.6458 29.4266 30.6494 29.4302C30.6566 29.4338 30.6655 29.4355 30.6763 29.4355C30.8195 29.457 30.9645 29.4731 31.1113 29.4839C31.2581 29.4946 31.4032 29.5 31.5464 29.5C31.9045 29.5 32.2482 29.4678 32.5776 29.4033C32.592 29.4033 32.6027 29.4015 32.6099 29.3979C32.6206 29.3944 32.6296 29.3926 32.6367 29.3926C32.7119 29.3926 32.7782 29.423 32.8354 29.4839C32.8927 29.5412 32.9214 29.6056 32.9214 29.6772ZM29.6235 47.3467C29.6235 47.1712 29.6038 46.994 29.5645 46.8149C29.5251 46.6359 29.4678 46.4622 29.3926 46.2939C29.3174 46.1257 29.2261 45.9681 29.1187 45.8213C29.0112 45.6745 28.8895 45.5474 28.7534 45.4399C28.6209 45.3289 28.4741 45.243 28.313 45.1821C28.1554 45.1177 27.9871 45.0854 27.8081 45.0854C27.6076 45.0854 27.4321 45.1195 27.2817 45.1875C27.1349 45.252 27.006 45.3415 26.895 45.4561C26.784 45.5671 26.6927 45.696 26.6211 45.8428C26.5495 45.9896 26.4922 46.1453 26.4492 46.3101C26.4062 46.4748 26.3758 46.6413 26.3579 46.8096C26.34 46.9779 26.3311 47.139 26.3311 47.293C26.3311 47.4505 26.3382 47.6188 26.3525 47.7979C26.3669 47.9733 26.3919 48.1488 26.4277 48.3242C26.4635 48.4961 26.5119 48.6626 26.5728 48.8237C26.6336 48.9849 26.7124 49.1263 26.8091 49.248C26.9058 49.3698 27.0221 49.4665 27.1582 49.5381C27.2979 49.6097 27.4626 49.6455 27.6523 49.6455C27.9639 49.6455 28.2414 49.5811 28.4849 49.4521C28.7319 49.3197 28.9396 49.146 29.1079 48.9312C29.2762 48.7163 29.4033 48.471 29.4893 48.1953C29.5788 47.9196 29.6235 47.6367 29.6235 47.3467ZM30.1821 47.3467C30.1821 47.7764 30.1051 48.1702 29.9512 48.5283C29.7972 48.8864 29.5895 49.1943 29.3281 49.4521C29.0667 49.7064 28.7606 49.9051 28.4097 50.0483C28.0623 50.1916 27.6953 50.2632 27.3086 50.2632C26.8717 50.2632 26.4761 50.1934 26.1216 50.0537C25.7707 49.9176 25.4699 49.7225 25.2192 49.4683C24.9686 49.214 24.7752 48.9079 24.6392 48.5498C24.5067 48.1917 24.4404 47.7907 24.4404 47.3467C24.4404 46.9242 24.5138 46.5339 24.6606 46.1758C24.8075 45.8177 25.0098 45.5098 25.2676 45.252C25.5254 44.9906 25.828 44.7882 26.1753 44.645C26.5262 44.4982 26.904 44.4248 27.3086 44.4248C27.7311 44.4248 28.1178 44.5036 28.4688 44.6611C28.8232 44.8151 29.1276 45.0264 29.3818 45.2949C29.6361 45.5599 29.833 45.8696 29.9727 46.2241C30.1123 46.5786 30.1821 46.9528 30.1821 47.3467ZM29.6235 62.3467C29.6235 62.1712 29.6038 61.994 29.5645 61.8149C29.5251 61.6359 29.4678 61.4622 29.3926 61.2939C29.3174 61.1257 29.2261 60.9681 29.1187 60.8213C29.0112 60.6745 28.8895 60.5474 28.7534 60.4399C28.6209 60.3289 28.4741 60.243 28.313 60.1821C28.1554 60.1177 27.9871 60.0854 27.8081 60.0854C27.6076 60.0854 27.4321 60.1195 27.2817 60.1875C27.1349 60.252 27.006 60.3415 26.895 60.4561C26.784 60.5671 26.6927 60.696 26.6211 60.8428C26.5495 60.9896 26.4922 61.1453 26.4492 61.3101C26.4062 61.4748 26.3758 61.6413 26.3579 61.8096C26.34 61.9779 26.3311 62.139 26.3311 62.293C26.3311 62.4505 26.3382 62.6188 26.3525 62.7979C26.3669 62.9733 26.3919 63.1488 26.4277 63.3242C26.4635 63.4961 26.5119 63.6626 26.5728 63.8237C26.6336 63.9849 26.7124 64.1263 26.8091 64.248C26.9058 64.3698 27.0221 64.4665 27.1582 64.5381C27.2979 64.6097 27.4626 64.6455 27.6523 64.6455C27.9639 64.6455 28.2414 64.5811 28.4849 64.4521C28.7319 64.3197 28.9396 64.146 29.1079 63.9312C29.2762 63.7163 29.4033 63.471 29.4893 63.1953C29.5788 62.9196 29.6235 62.6367 29.6235 62.3467ZM30.1821 62.3467C30.1821 62.7764 30.1051 63.1702 29.9512 63.5283C29.7972 63.8864 29.5895 64.1943 29.3281 64.4521C29.0667 64.7064 28.7606 64.9051 28.4097 65.0483C28.0623 65.1916 27.6953 65.2632 27.3086 65.2632C26.8717 65.2632 26.4761 65.1934 26.1216 65.0537C25.7707 64.9176 25.4699 64.7225 25.2192 64.4683C24.9686 64.214 24.7752 63.9079 24.6392 63.5498C24.5067 63.1917 24.4404 62.7907 24.4404 62.3467C24.4404 61.9242 24.5138 61.5339 24.6606 61.1758C24.8075 60.8177 25.0098 60.5098 25.2676 60.252C25.5254 59.9906 25.828 59.7882 26.1753 59.645C26.5262 59.4982 26.904 59.4248 27.3086 59.4248C27.7311 59.4248 28.1178 59.5036 28.4688 59.6611C28.8232 59.8151 29.1276 60.0264 29.3818 60.2949C29.6361 60.5599 29.833 60.8696 29.9727 61.2241C30.1123 61.5786 30.1821 61.9528 30.1821 62.3467ZM28.4902 75.9502C28.4365 75.7891 28.356 75.6494 28.2485 75.5312C28.1411 75.4131 28.0176 75.3146 27.8779 75.2358C27.7419 75.1571 27.5951 75.0998 27.4375 75.064C27.2799 75.0246 27.1206 75.0049 26.9595 75.0049C26.716 75.0049 26.4993 75.0443 26.3096 75.123C26.1198 75.1982 25.9533 75.3021 25.8101 75.4346C25.6668 75.5635 25.5433 75.7157 25.4395 75.8911C25.3392 76.063 25.2568 76.2456 25.1924 76.439C25.1279 76.6287 25.0814 76.8239 25.0527 77.0244C25.0241 77.2249 25.0098 77.4183 25.0098 77.6045C25.0133 77.8659 25.0492 78.1183 25.1172 78.3618C25.1888 78.6017 25.2926 78.8166 25.4287 79.0063C25.5684 79.1925 25.7367 79.3429 25.9336 79.4575C26.1341 79.5685 26.3651 79.624 26.6265 79.624C26.8664 79.624 27.0794 79.5685 27.2656 79.4575C27.4518 79.3429 27.6147 79.1997 27.7544 79.0278C27.8976 78.856 28.0176 78.668 28.1143 78.4639C28.2109 78.2562 28.2879 78.0592 28.3452 77.873C28.4025 77.6833 28.4419 77.5168 28.4634 77.3735C28.4884 77.2267 28.4974 77.13 28.4902 77.0835V75.9502ZM31.0522 79.9785H31.0308C30.9412 79.9714 30.8517 79.966 30.7622 79.9624C30.6763 79.9588 30.5921 79.957 30.5098 79.957C30.2806 79.957 30.0658 79.9678 29.8652 79.9893C29.6647 80.0107 29.4893 80.034 29.3389 80.0591C29.1921 80.0877 29.0739 80.1128 28.9844 80.1343C28.8984 80.1558 28.8537 80.1665 28.8501 80.1665C28.8394 80.1737 28.8268 80.1772 28.8125 80.1772C28.7982 80.1772 28.7856 80.1772 28.7749 80.1772C28.6925 80.1772 28.6245 80.1468 28.5708 80.0859C28.5171 80.0286 28.4902 79.9642 28.4902 79.8926V78.9795C28.4079 79.1514 28.3022 79.3107 28.1733 79.4575C28.048 79.6043 27.9066 79.7314 27.749 79.8389C27.5915 79.9463 27.4178 80.0304 27.228 80.0913C27.0418 80.1558 26.8467 80.188 26.6426 80.188C26.2988 80.188 25.9927 80.1182 25.7241 79.9785C25.4556 79.8389 25.2264 79.6527 25.0366 79.4199C24.8504 79.1836 24.7072 78.9097 24.6069 78.5981C24.5067 78.2866 24.4548 77.959 24.4512 77.6152C24.4512 77.3467 24.4727 77.0835 24.5156 76.8257C24.5622 76.5643 24.632 76.3172 24.7251 76.0845C24.8182 75.8481 24.9328 75.6297 25.0688 75.4292C25.2085 75.2287 25.3714 75.0568 25.5576 74.9136C25.7438 74.7668 25.9533 74.6522 26.186 74.5698C26.4188 74.4875 26.6766 74.4463 26.9595 74.4463C27.271 74.4463 27.5557 74.4928 27.8135 74.5859C28.0713 74.679 28.2969 74.8079 28.4902 74.9727V72.8081C28.2682 72.7974 28.0802 72.783 27.9263 72.7651C27.7759 72.7472 27.6917 72.7383 27.6738 72.7383C27.6022 72.7275 27.5413 72.6953 27.4912 72.6416C27.4447 72.5879 27.4214 72.5252 27.4214 72.4536C27.4214 72.3748 27.45 72.3104 27.5073 72.2603C27.5682 72.2065 27.6344 72.1797 27.7061 72.1797H27.7383C27.7419 72.1797 27.783 72.1851 27.8618 72.1958C27.9406 72.203 28.0426 72.2119 28.168 72.2227C28.2969 72.2334 28.4437 72.2441 28.6084 72.2549C28.7731 72.262 28.9414 72.2656 29.1133 72.2656C29.2816 72.2656 29.4463 72.2603 29.6074 72.2495C29.7721 72.2352 29.9225 72.2119 30.0586 72.1797H30.1284C30.2108 72.1797 30.277 72.2083 30.3271 72.2656C30.3773 72.3193 30.4023 72.382 30.4023 72.4536V79.3931H30.5098C30.6029 79.3931 30.696 79.3949 30.7891 79.3984C30.8857 79.3984 30.9806 79.4038 31.0737 79.4146C31.1525 79.4217 31.2152 79.4521 31.2617 79.5059C31.3118 79.5596 31.3369 79.6222 31.3369 79.6938C31.3369 79.7798 31.3047 79.8496 31.2402 79.9033C31.1794 79.9535 31.1167 79.9785 31.0522 79.9785ZM27.894 95.1343C27.8869 95.1343 27.8779 95.1325 27.8672 95.1289C27.86 95.1253 27.8511 95.1235 27.8403 95.1235C27.5503 95.0662 27.2746 95.0251 27.0132 95C26.7518 94.9714 26.4922 94.957 26.2344 94.957C25.973 94.957 25.7134 94.9714 25.4556 95C25.1978 95.0251 24.9256 95.0662 24.6392 95.1235C24.6284 95.1235 24.6195 95.1253 24.6123 95.1289C24.6051 95.1325 24.5962 95.1343 24.5854 95.1343C24.5031 95.1343 24.4351 95.1038 24.3813 95.043C24.3312 94.9821 24.3062 94.9159 24.3062 94.8442C24.3062 94.7798 24.3258 94.7207 24.3652 94.667C24.4082 94.6133 24.4619 94.5811 24.5264 94.5703C24.6517 94.5417 24.777 94.5202 24.9023 94.5059C25.0312 94.488 25.1566 94.4701 25.2783 94.4521V90.3379C25.0527 90.3271 24.863 90.3128 24.709 90.2949C24.555 90.277 24.4691 90.2681 24.4512 90.2681C24.3796 90.2573 24.3205 90.2251 24.2739 90.1714C24.231 90.1177 24.2095 90.055 24.2095 89.9834C24.2095 89.8939 24.2417 89.8258 24.3062 89.7793C24.3706 89.7327 24.4333 89.7095 24.4941 89.7095H24.5264C24.5299 89.7095 24.5711 89.7148 24.6499 89.7256C24.7287 89.7327 24.8307 89.7417 24.9561 89.7524C25.085 89.7632 25.23 89.7739 25.3911 89.7847C25.5522 89.7918 25.7188 89.7954 25.8906 89.7954C26.0625 89.7954 26.2308 89.79 26.3955 89.7793C26.5602 89.765 26.7106 89.7417 26.8467 89.7095H26.9058C26.9881 89.7095 27.0562 89.7381 27.1099 89.7954C27.1636 89.8491 27.1904 89.9118 27.1904 89.9834L27.1797 94.4521C27.305 94.4701 27.4303 94.488 27.5557 94.5059C27.6846 94.5202 27.8153 94.5417 27.9478 94.5703C28.0158 94.5811 28.0713 94.6133 28.1143 94.667C28.1572 94.7207 28.1787 94.7798 28.1787 94.8442C28.1787 94.9266 28.1483 94.9946 28.0874 95.0483C28.0265 95.1056 27.9621 95.1343 27.894 95.1343ZM27.1152 88.0713C27.1152 88.2038 27.0902 88.3291 27.04 88.4473C26.9899 88.5618 26.9201 88.6621 26.8306 88.748C26.7446 88.834 26.6426 88.902 26.5244 88.9521C26.4098 89.0023 26.2863 89.0273 26.1538 89.0273C26.0213 89.0273 25.896 89.0023 25.7778 88.9521C25.6632 88.902 25.563 88.834 25.4771 88.748C25.3911 88.6621 25.3231 88.5618 25.2729 88.4473C25.2228 88.3291 25.1978 88.2038 25.1978 88.0713C25.1978 87.9388 25.2228 87.8153 25.2729 87.7007C25.3231 87.5825 25.3911 87.4805 25.4771 87.3945C25.563 87.3086 25.6632 87.2406 25.7778 87.1904C25.896 87.1403 26.0213 87.1152 26.1538 87.1152C26.2863 87.1152 26.4098 87.1403 26.5244 87.1904C26.6426 87.2406 26.7446 87.3086 26.8306 87.3945C26.9201 87.4805 26.9899 87.5825 27.04 87.7007C27.0902 87.8153 27.1152 87.9388 27.1152 88.0713Z" fill="white"/>
<path d="M136.624 21.3467C136.624 21.1712 136.604 20.994 136.564 20.8149C136.525 20.6359 136.468 20.4622 136.393 20.2939C136.317 20.1257 136.226 19.9681 136.119 19.8213C136.011 19.6745 135.889 19.5474 135.753 19.4399C135.621 19.3289 135.474 19.243 135.313 19.1821C135.155 19.1177 134.987 19.0854 134.808 19.0854C134.608 19.0854 134.432 19.1195 134.282 19.1875C134.135 19.252 134.006 19.3415 133.895 19.4561C133.784 19.5671 133.693 19.696 133.621 19.8428C133.549 19.9896 133.492 20.1453 133.449 20.3101C133.406 20.4748 133.376 20.6413 133.358 20.8096C133.34 20.9779 133.331 21.139 133.331 21.293C133.331 21.4505 133.338 21.6188 133.353 21.7979C133.367 21.9733 133.392 22.1488 133.428 22.3242C133.464 22.4961 133.512 22.6626 133.573 22.8237C133.634 22.9849 133.712 23.1263 133.809 23.248C133.906 23.3698 134.022 23.4665 134.158 23.5381C134.298 23.6097 134.463 23.6455 134.652 23.6455C134.964 23.6455 135.241 23.5811 135.485 23.4521C135.732 23.3197 135.94 23.146 136.108 22.9312C136.276 22.7163 136.403 22.471 136.489 22.1953C136.579 21.9196 136.624 21.6367 136.624 21.3467ZM137.182 21.3467C137.182 21.7764 137.105 22.1702 136.951 22.5283C136.797 22.8864 136.59 23.1943 136.328 23.4521C136.067 23.7064 135.761 23.9051 135.41 24.0483C135.062 24.1916 134.695 24.2632 134.309 24.2632C133.872 24.2632 133.476 24.1934 133.122 24.0537C132.771 23.9176 132.47 23.7225 132.219 23.4683C131.969 23.214 131.775 22.9079 131.639 22.5498C131.507 22.1917 131.44 21.7907 131.44 21.3467C131.44 20.9242 131.514 20.5339 131.661 20.1758C131.807 19.8177 132.01 19.5098 132.268 19.252C132.525 18.9906 132.828 18.7882 133.175 18.645C133.526 18.4982 133.904 18.4248 134.309 18.4248C134.731 18.4248 135.118 18.5036 135.469 18.6611C135.823 18.8151 136.128 19.0264 136.382 19.2949C136.636 19.5599 136.833 19.8696 136.973 20.2241C137.112 20.5786 137.182 20.9528 137.182 21.3467ZM137.961 44.9141C137.947 44.9141 137.936 44.9105 137.929 44.9033C137.803 44.8854 137.68 44.8729 137.558 44.8657C137.436 44.8586 137.315 44.855 137.193 44.855C137.01 44.855 136.828 44.8639 136.645 44.8818C136.466 44.8997 136.285 44.9248 136.103 44.957C136.095 44.9642 136.088 44.9678 136.081 44.9678C136.074 44.9678 136.067 44.9678 136.06 44.9678C135.977 44.9678 135.909 44.9391 135.855 44.8818C135.802 44.821 135.775 44.7547 135.775 44.6831C135.775 44.6151 135.796 44.556 135.839 44.5059C135.882 44.4521 135.938 44.4181 136.006 44.4038C136.26 44.3501 136.516 44.3179 136.774 44.3071C136.971 43.4012 137.069 42.6278 137.069 41.9868C137.069 41.7075 137.048 41.4461 137.005 41.2026C136.965 40.9556 136.892 40.7407 136.785 40.5581C136.681 40.3755 136.538 40.2305 136.355 40.123C136.172 40.0156 135.938 39.9619 135.651 39.9619C135.49 39.9619 135.336 39.9924 135.189 40.0532C135.046 40.1141 134.912 40.1965 134.787 40.3003C134.665 40.4006 134.554 40.5187 134.454 40.6548C134.353 40.7909 134.267 40.9341 134.196 41.0845C134.128 41.2313 134.074 41.3817 134.035 41.5356C133.999 41.6896 133.981 41.8364 133.981 41.9761L133.97 44.3716C134.096 44.3823 134.221 44.3984 134.346 44.4199C134.475 44.4414 134.606 44.4665 134.738 44.4951C134.806 44.5059 134.862 44.5381 134.905 44.5918C134.948 44.6419 134.969 44.701 134.969 44.769C134.969 44.8514 134.939 44.9176 134.878 44.9678C134.821 45.0179 134.756 45.043 134.685 45.043H134.631C134.341 44.9893 134.065 44.9481 133.804 44.9194C133.542 44.8908 133.283 44.8765 133.025 44.8765C132.771 44.8765 132.513 44.8908 132.251 44.9194C131.99 44.9481 131.716 44.9893 131.43 45.043H131.376C131.294 45.043 131.226 45.0161 131.172 44.9624C131.122 44.9051 131.097 44.8407 131.097 44.769C131.097 44.701 131.116 44.6419 131.156 44.5918C131.199 44.5381 131.252 44.5059 131.317 44.4951C131.442 44.4665 131.568 44.4432 131.693 44.4253C131.822 44.4074 131.947 44.3895 132.069 44.3716V37.9692C131.843 37.9585 131.653 37.946 131.5 37.9316C131.346 37.9137 131.26 37.9048 131.242 37.9048C131.17 37.894 131.111 37.8618 131.064 37.8081C131.021 37.7544 131 37.6917 131 37.6201C131 37.5306 131.032 37.4626 131.097 37.416C131.161 37.3695 131.224 37.3462 131.285 37.3462H131.317C131.32 37.3462 131.362 37.3516 131.44 37.3623C131.519 37.3695 131.621 37.3784 131.747 37.3892C131.875 37.3999 132.021 37.4106 132.182 37.4214C132.343 37.4285 132.509 37.4321 132.681 37.4321C132.853 37.4321 133.021 37.4268 133.186 37.416C133.351 37.4017 133.503 37.3784 133.643 37.3462H133.696C133.779 37.3462 133.847 37.3748 133.9 37.4321C133.954 37.4858 133.981 37.5485 133.981 37.6201V40.3486C134.185 40.0335 134.427 39.7972 134.706 39.6396C134.989 39.4821 135.304 39.4033 135.651 39.4033C136.024 39.4033 136.335 39.4714 136.586 39.6074C136.84 39.7435 137.044 39.9279 137.198 40.1606C137.356 40.3934 137.467 40.6691 137.531 40.9878C137.599 41.3029 137.633 41.6395 137.633 41.9976C137.633 42.6313 137.538 43.3976 137.349 44.2964C137.46 44.2964 137.569 44.3018 137.676 44.3125C137.787 44.3197 137.895 44.3322 137.999 44.3501C138.07 44.3573 138.129 44.3877 138.176 44.4414C138.226 44.4915 138.251 44.5524 138.251 44.624C138.251 44.7028 138.221 44.7708 138.16 44.8281C138.099 44.8854 138.033 44.9141 137.961 44.9141ZM136.312 63.3359C136.18 63.3359 136.054 63.3109 135.936 63.2607C135.821 63.2106 135.721 63.1426 135.635 63.0566C135.549 62.9707 135.481 62.8704 135.431 62.7559C135.381 62.6377 135.356 62.5124 135.356 62.3799C135.356 62.2474 135.381 62.1239 135.431 62.0093C135.481 61.8911 135.549 61.7891 135.635 61.7031C135.721 61.6136 135.821 61.5438 135.936 61.4937C136.054 61.4399 136.18 61.4131 136.312 61.4131C136.33 61.4131 136.346 61.4149 136.36 61.4185C136.378 61.422 136.396 61.4238 136.414 61.4238C136.321 61.3522 136.212 61.2985 136.086 61.2627C135.965 61.2233 135.823 61.2036 135.662 61.2036C135.458 61.2036 135.281 61.2466 135.13 61.3325C134.98 61.4149 134.851 61.5205 134.744 61.6494C134.64 61.7747 134.556 61.9126 134.491 62.063C134.427 62.2098 134.375 62.3494 134.335 62.4819C134.3 62.6108 134.275 62.7218 134.26 62.8149C134.25 62.908 134.244 62.9618 134.244 62.9761L134.233 65.3608C134.359 65.3716 134.484 65.3877 134.609 65.4092C134.738 65.4307 134.869 65.4521 135.001 65.4736C135.069 65.4915 135.125 65.5273 135.168 65.5811C135.211 65.6312 135.232 65.6903 135.232 65.7583C135.232 65.8371 135.202 65.9033 135.141 65.957C135.08 66.0072 135.016 66.0322 134.948 66.0322H134.894C134.604 65.9785 134.328 65.9373 134.067 65.9087C133.806 65.88 133.546 65.8657 133.288 65.8657C133.03 65.8657 132.772 65.88 132.515 65.9087C132.257 65.9373 131.983 65.9785 131.693 66.0322H131.639C131.557 66.0322 131.491 66.0054 131.44 65.9517C131.39 65.8944 131.365 65.8299 131.365 65.7583C131.365 65.6903 131.385 65.6312 131.424 65.5811C131.464 65.5273 131.517 65.4915 131.585 65.4736C131.711 65.4521 131.836 65.4307 131.961 65.4092C132.087 65.3877 132.21 65.3716 132.332 65.3608V61.3594C132.106 61.3486 131.917 61.3343 131.763 61.3164C131.609 61.2985 131.523 61.286 131.505 61.2788C131.433 61.2716 131.374 61.243 131.328 61.1929C131.285 61.1392 131.263 61.0765 131.263 61.0049C131.263 60.9154 131.294 60.8455 131.354 60.7954C131.419 60.7453 131.483 60.7202 131.548 60.7202H131.585C131.589 60.7238 131.63 60.731 131.709 60.7417C131.788 60.7489 131.89 60.7578 132.015 60.7686C132.14 60.7793 132.284 60.7882 132.445 60.7954C132.61 60.8026 132.776 60.8062 132.944 60.8062C133.116 60.8062 133.285 60.8008 133.449 60.79C133.614 60.7793 133.766 60.7596 133.906 60.731C133.913 60.7238 133.931 60.7202 133.959 60.7202C134.042 60.7202 134.11 60.7507 134.164 60.8115C134.217 60.8688 134.244 60.9333 134.244 61.0049V61.3916C134.398 61.1768 134.591 60.9995 134.824 60.8599C135.061 60.7166 135.34 60.645 135.662 60.645C135.906 60.6522 136.128 60.6951 136.328 60.7739C136.529 60.8491 136.701 60.9548 136.844 61.0908C136.991 61.2233 137.103 61.3844 137.182 61.5742C137.264 61.7604 137.306 61.9699 137.306 62.2026C137.306 62.3494 137.282 62.4909 137.236 62.627C137.189 62.763 137.123 62.8848 137.037 62.9922C136.951 63.096 136.846 63.1802 136.72 63.2446C136.598 63.3055 136.462 63.3359 136.312 63.3359ZM135.082 85.1201C135.075 85.0592 135.069 84.9966 135.066 84.9321C135.062 84.8677 135.061 84.8014 135.061 84.7334H134.862C134.719 84.7334 134.549 84.7441 134.352 84.7656C134.158 84.7871 133.958 84.8211 133.75 84.8677C133.542 84.9142 133.336 84.9769 133.132 85.0557C132.928 85.1309 132.746 85.224 132.584 85.335C132.423 85.4424 132.293 85.5695 132.192 85.7163C132.096 85.8631 132.047 86.0314 132.047 86.2212C132.047 86.3215 132.071 86.4074 132.117 86.479C132.167 86.5506 132.228 86.6097 132.3 86.6562C132.375 86.6992 132.457 86.7314 132.547 86.7529C132.636 86.7708 132.722 86.7798 132.805 86.7798C133.059 86.7798 133.299 86.7314 133.524 86.6348C133.754 86.5345 133.965 86.4056 134.158 86.248C134.352 86.0869 134.525 85.9079 134.679 85.7109C134.833 85.514 134.967 85.3171 135.082 85.1201ZM137.655 86.9785H137.633C137.572 86.9714 137.51 86.9678 137.445 86.9678C137.381 86.9678 137.318 86.9678 137.257 86.9678C136.921 86.9678 136.597 86.9893 136.285 87.0322C135.977 87.0752 135.667 87.1414 135.356 87.231C135.345 87.231 135.334 87.2327 135.324 87.2363C135.313 87.2399 135.299 87.2417 135.281 87.2417C135.198 87.2417 135.13 87.2095 135.077 87.145C135.027 87.0841 135.001 87.0215 135.001 86.957V86.9141C135.001 86.9069 135.01 86.8353 135.028 86.6992C135.046 86.5596 135.064 86.3662 135.082 86.1191C134.928 86.291 134.763 86.4521 134.588 86.6025C134.416 86.7493 134.233 86.8783 134.04 86.9893C133.85 87.0967 133.653 87.1808 133.449 87.2417C133.245 87.3062 133.034 87.3384 132.815 87.3384C132.644 87.3384 132.477 87.3115 132.316 87.2578C132.155 87.2077 132.012 87.1343 131.886 87.0376C131.764 86.9409 131.666 86.8245 131.591 86.6885C131.519 86.5488 131.483 86.3931 131.483 86.2212C131.483 85.9526 131.541 85.7163 131.655 85.5122C131.773 85.3081 131.927 85.1309 132.117 84.9805C132.307 84.8265 132.522 84.6994 132.762 84.5991C133.005 84.4953 133.252 84.4129 133.503 84.3521C133.754 84.2876 133.997 84.2428 134.233 84.2178C134.47 84.1891 134.679 84.1748 134.862 84.1748H134.991C134.991 83.9564 134.951 83.7433 134.873 83.5356C134.797 83.328 134.69 83.1436 134.55 82.9824C134.414 82.8213 134.251 82.6924 134.062 82.5957C133.872 82.4954 133.662 82.4453 133.433 82.4453C133.265 82.4453 133.1 82.4937 132.939 82.5903C132.778 82.6834 132.635 82.8034 132.509 82.9502C132.384 83.097 132.282 83.2617 132.203 83.4443C132.128 83.627 132.09 83.8042 132.09 83.9761C132.09 84.0477 132.06 84.1086 131.999 84.1587C131.942 84.2052 131.877 84.2285 131.806 84.2285C131.727 84.2285 131.659 84.1999 131.602 84.1426C131.544 84.0817 131.516 84.0155 131.516 83.9438C131.516 83.772 131.546 83.5929 131.607 83.4067C131.668 83.217 131.756 83.0326 131.87 82.8535C131.988 82.6709 132.13 82.499 132.294 82.3379C132.463 82.1768 132.653 82.0353 132.864 81.9136C133.079 81.7882 133.313 81.6898 133.567 81.6182C133.822 81.5465 134.092 81.5107 134.378 81.5107C134.779 81.5107 135.121 81.5734 135.404 81.6987C135.691 81.8241 135.929 81.9941 136.119 82.209C136.312 82.4238 136.464 82.6727 136.575 82.9556C136.686 83.2384 136.77 83.5374 136.828 83.8525C136.885 84.1676 136.921 84.4881 136.935 84.814C136.953 85.1398 136.962 85.4513 136.962 85.7485C136.962 85.8989 136.96 86.0278 136.957 86.1353C136.953 86.2427 136.951 86.3322 136.951 86.4038C137.005 86.4038 137.059 86.402 137.112 86.3984C137.17 86.3949 137.225 86.3931 137.279 86.3931C137.34 86.3931 137.402 86.3949 137.467 86.3984C137.535 86.402 137.601 86.4038 137.666 86.4038C137.744 86.411 137.807 86.4414 137.854 86.4951C137.904 86.5488 137.929 86.6151 137.929 86.6938C137.929 86.769 137.902 86.8353 137.848 86.8926C137.798 86.9499 137.734 86.9785 137.655 86.9785Z" fill="white"/>
<path d="M43.2188 136.969C43.2188 137.031 43.2292 137.115 43.25 137.219C43.2708 137.302 43.2812 137.396 43.2812 137.5C43.2812 137.938 43.1042 138.323 42.75 138.656C42.4167 138.99 42.0417 139.156 41.625 139.156C41.2917 139.156 40.9792 139.052 40.6875 138.844C40.4167 138.635 40.2188 138.354 40.0938 138C39.8229 137.208 39.5625 136.365 39.3125 135.469C39.0625 134.552 38.8333 133.656 38.625 132.781C38.4375 131.906 38.2604 131.083 38.0938 130.312C37.9271 129.542 37.8021 128.885 37.7188 128.344C36.5312 128.406 35.1771 128.458 33.6562 128.5C32.1354 128.521 30.5 128.531 28.75 128.531L27.7188 167.125C29.4271 167.188 31.0729 167.312 32.6562 167.5C33.1146 167.542 33.4688 167.719 33.7188 168.031C33.9896 168.323 34.125 168.677 34.125 169.094C34.125 169.615 33.9479 170.021 33.5938 170.312C33.2604 170.625 32.9062 170.781 32.5312 170.781H32.3438C30.6562 170.573 28.9896 170.427 27.3438 170.344C25.6979 170.281 24.0521 170.25 22.4062 170.25C20.7396 170.25 19.1042 170.281 17.5 170.344C15.8958 170.427 14.2917 170.573 12.6875 170.781H12.5C12.0417 170.781 11.6458 170.604 11.3125 170.25C11 169.896 10.8438 169.51 10.8438 169.094C10.8438 168.677 10.9792 168.323 11.25 168.031C11.5417 167.719 11.8958 167.542 12.3125 167.5C13.9167 167.312 15.4896 167.188 17.0312 167.125L17.75 128.344C15.9792 128.281 14.3125 128.208 12.75 128.125C11.2083 128.021 9.82292 127.917 8.59375 127.812C8.46875 128.375 8.3125 129.062 8.125 129.875C7.95833 130.688 7.76042 131.552 7.53125 132.469C7.32292 133.385 7.10417 134.323 6.875 135.281C6.64583 136.219 6.40625 137.104 6.15625 137.938C6.05208 138.292 5.85417 138.583 5.5625 138.812C5.29167 139.042 4.97917 139.156 4.625 139.156C4.14583 139.156 3.75 138.99 3.4375 138.656C3.125 138.302 2.96875 137.917 2.96875 137.5C2.96875 137.438 2.96875 137.365 2.96875 137.281C2.96875 137.177 2.98958 137.094 3.03125 137.031C3.34375 135.927 3.65625 134.719 3.96875 133.406C4.28125 132.094 4.5625 130.865 4.8125 129.719C5.08333 128.573 5.30208 127.615 5.46875 126.844C5.63542 126.073 5.71875 125.677 5.71875 125.656C5.82292 125.26 6.01042 124.948 6.28125 124.719C6.57292 124.49 6.91667 124.375 7.3125 124.375H7.5625C8.64583 124.521 9.95833 124.646 11.5 124.75C13.0625 124.854 14.7396 124.948 16.5312 125.031C18.3438 125.094 20.2188 125.146 22.1562 125.188C24.0938 125.229 25.9896 125.25 27.8438 125.25C30.1146 125.25 32.2083 125.229 34.125 125.188C36.0417 125.125 37.6458 125.042 38.9375 124.938H39.0625C39.4375 124.938 39.7812 125.073 40.0938 125.344C40.4062 125.594 40.5938 125.906 40.6562 126.281C40.6562 126.302 40.6875 126.479 40.75 126.812C40.8125 127.146 40.8958 127.594 41 128.156C41.1042 128.719 41.2292 129.365 41.375 130.094C41.5417 130.823 41.7188 131.583 41.9062 132.375C42.0938 133.146 42.2917 133.938 42.5 134.75C42.7292 135.542 42.9688 136.281 43.2188 136.969ZM75.3438 154.562C75.3438 153.542 75.2292 152.51 75 151.469C74.7708 150.427 74.4375 149.417 74 148.438C73.5625 147.458 73.0312 146.542 72.4062 145.688C71.7812 144.833 71.0729 144.094 70.2812 143.469C69.5104 142.823 68.6562 142.323 67.7188 141.969C66.8021 141.594 65.8229 141.406 64.7812 141.406C63.6146 141.406 62.5938 141.604 61.7188 142C60.8646 142.375 60.1146 142.896 59.4688 143.562C58.8229 144.208 58.2917 144.958 57.875 145.812C57.4583 146.667 57.125 147.573 56.875 148.531C56.625 149.49 56.4479 150.458 56.3438 151.438C56.2396 152.417 56.1875 153.354 56.1875 154.25C56.1875 155.167 56.2292 156.146 56.3125 157.188C56.3958 158.208 56.5417 159.229 56.75 160.25C56.9583 161.25 57.2396 162.219 57.5938 163.156C57.9479 164.094 58.4062 164.917 58.9688 165.625C59.5312 166.333 60.2083 166.896 61 167.312C61.8125 167.729 62.7708 167.938 63.875 167.938C65.6875 167.938 67.3021 167.562 68.7188 166.812C70.1562 166.042 71.3646 165.031 72.3438 163.781C73.3229 162.531 74.0625 161.104 74.5625 159.5C75.0833 157.896 75.3438 156.25 75.3438 154.562ZM78.5938 154.562C78.5938 157.062 78.1458 159.354 77.25 161.438C76.3542 163.521 75.1458 165.312 73.625 166.812C72.1042 168.292 70.3229 169.448 68.2812 170.281C66.2604 171.115 64.125 171.531 61.875 171.531C59.3333 171.531 57.0312 171.125 54.9688 170.312C52.9271 169.521 51.1771 168.385 49.7188 166.906C48.2604 165.427 47.1354 163.646 46.3438 161.562C45.5729 159.479 45.1875 157.146 45.1875 154.562C45.1875 152.104 45.6146 149.833 46.4688 147.75C47.3229 145.667 48.5 143.875 50 142.375C51.5 140.854 53.2604 139.677 55.2812 138.844C57.3229 137.99 59.5208 137.562 61.875 137.562C64.3333 137.562 66.5833 138.021 68.625 138.938C70.6875 139.833 72.4583 141.062 73.9375 142.625C75.4167 144.167 76.5625 145.969 77.375 148.031C78.1875 150.094 78.5938 152.271 78.5938 154.562ZM118.5 153.219C118.479 151.781 118.26 150.365 117.844 148.969C117.427 147.552 116.812 146.292 116 145.188C115.208 144.083 114.229 143.188 113.062 142.5C111.917 141.812 110.594 141.469 109.094 141.469C107.99 141.469 106.948 141.708 105.969 142.188C105.01 142.667 104.125 143.302 103.312 144.094C102.521 144.885 101.812 145.792 101.188 146.812C100.562 147.833 100.031 148.896 99.5938 150C99.1771 151.104 98.8542 152.208 98.625 153.312C98.3958 154.417 98.2812 155.438 98.2812 156.375V162.719C98.5312 163.698 98.9688 164.542 99.5938 165.25C100.219 165.938 100.948 166.521 101.781 167C102.615 167.458 103.51 167.802 104.469 168.031C105.427 168.24 106.354 168.344 107.25 168.344C108.625 168.344 109.854 168.115 110.938 167.656C112.042 167.198 113.01 166.583 113.844 165.812C114.677 165.042 115.385 164.156 115.969 163.156C116.552 162.135 117.031 161.062 117.406 159.938C117.781 158.812 118.052 157.677 118.219 156.531C118.406 155.365 118.5 154.26 118.5 153.219ZM121.844 153.219C121.844 154.719 121.698 156.219 121.406 157.719C121.135 159.198 120.719 160.625 120.156 162C119.615 163.354 118.938 164.625 118.125 165.812C117.312 166.979 116.365 168 115.281 168.875C114.198 169.729 112.979 170.406 111.625 170.906C110.292 171.406 108.833 171.656 107.25 171.656C105.562 171.656 103.938 171.385 102.375 170.844C100.833 170.323 99.4688 169.552 98.2812 168.531V183.25C98.7604 183.292 99.25 183.333 99.75 183.375C100.25 183.438 100.74 183.5 101.219 183.562C101.635 183.625 101.969 183.812 102.219 184.125C102.49 184.438 102.625 184.781 102.625 185.156C102.625 185.698 102.438 186.115 102.062 186.406C101.688 186.698 101.323 186.844 100.969 186.844H100.781C99.5521 186.677 98.2917 186.531 97 186.406C95.7083 186.302 94.3438 186.25 92.9062 186.25C91.5938 186.25 90.2188 186.302 88.7812 186.406C87.3646 186.531 85.8333 186.76 84.1875 187.094H83.9375C83.4583 187.094 83.0625 186.927 82.75 186.594C82.4375 186.281 82.2812 185.917 82.2812 185.5C82.2812 185.104 82.3958 184.75 82.625 184.438C82.875 184.146 83.2083 183.958 83.625 183.875C84.875 183.625 86.0521 183.438 87.1562 183.312V142.156C86.0312 142.094 85.1042 142.021 84.375 141.938C83.6458 141.833 83.25 141.781 83.1875 141.781C82.7708 141.719 82.4271 141.531 82.1562 141.219C81.8854 140.906 81.75 140.562 81.75 140.188C81.75 139.646 81.9375 139.229 82.3125 138.938C82.7083 138.646 83.0833 138.5 83.4375 138.5H83.625C83.6458 138.5 83.8646 138.531 84.2812 138.594C84.6979 138.635 85.2396 138.698 85.9062 138.781C86.5938 138.844 87.375 138.906 88.25 138.969C89.125 139.01 90.0312 139.031 90.9688 139.031C91.8854 139.031 92.8021 139 93.7188 138.938C94.6354 138.854 95.4896 138.729 96.2812 138.562C96.3646 138.521 96.4792 138.5 96.625 138.5C97.1042 138.5 97.5 138.677 97.8125 139.031C98.125 139.385 98.2812 139.771 98.2812 140.188V145.281C99.5312 143.094 101.073 141.365 102.906 140.094C104.76 138.823 106.823 138.188 109.094 138.188C111.135 138.188 112.938 138.635 114.5 139.531C116.062 140.427 117.375 141.594 118.438 143.031C119.521 144.469 120.344 146.083 120.906 147.875C121.469 149.667 121.781 151.448 121.844 153.219ZM147.031 170.781C146.99 170.781 146.938 170.771 146.875 170.75C146.833 170.729 146.781 170.719 146.719 170.719C145.031 170.385 143.427 170.146 141.906 170C140.385 169.833 138.875 169.75 137.375 169.75C135.854 169.75 134.344 169.833 132.844 170C131.344 170.146 129.76 170.385 128.094 170.719C128.031 170.719 127.979 170.729 127.938 170.75C127.896 170.771 127.844 170.781 127.781 170.781C127.302 170.781 126.906 170.604 126.594 170.25C126.302 169.896 126.156 169.51 126.156 169.094C126.156 168.719 126.271 168.375 126.5 168.062C126.75 167.75 127.062 167.562 127.438 167.5C128.167 167.333 128.896 167.208 129.625 167.125C130.375 167.021 131.104 166.917 131.812 166.812V142.875C130.5 142.812 129.396 142.729 128.5 142.625C127.604 142.521 127.104 142.469 127 142.469C126.583 142.406 126.24 142.219 125.969 141.906C125.719 141.594 125.594 141.229 125.594 140.812C125.594 140.292 125.781 139.896 126.156 139.625C126.531 139.354 126.896 139.219 127.25 139.219H127.438C127.458 139.219 127.698 139.25 128.156 139.312C128.615 139.354 129.208 139.406 129.938 139.469C130.688 139.531 131.531 139.594 132.469 139.656C133.406 139.698 134.375 139.719 135.375 139.719C136.375 139.719 137.354 139.688 138.312 139.625C139.271 139.542 140.146 139.406 140.938 139.219H141.281C141.76 139.219 142.156 139.385 142.469 139.719C142.781 140.031 142.938 140.396 142.938 140.812L142.875 166.812C143.604 166.917 144.333 167.021 145.062 167.125C145.812 167.208 146.573 167.333 147.344 167.5C147.74 167.562 148.062 167.75 148.312 168.062C148.562 168.375 148.688 168.719 148.688 169.094C148.688 169.573 148.51 169.969 148.156 170.281C147.802 170.615 147.427 170.781 147.031 170.781ZM142.5 129.688C142.5 130.458 142.354 131.188 142.062 131.875C141.771 132.542 141.365 133.125 140.844 133.625C140.344 134.125 139.75 134.521 139.062 134.812C138.396 135.104 137.677 135.25 136.906 135.25C136.135 135.25 135.406 135.104 134.719 134.812C134.052 134.521 133.469 134.125 132.969 133.625C132.469 133.125 132.073 132.542 131.781 131.875C131.49 131.188 131.344 130.458 131.344 129.688C131.344 128.917 131.49 128.198 131.781 127.531C132.073 126.844 132.469 126.25 132.969 125.75C133.469 125.25 134.052 124.854 134.719 124.562C135.406 124.271 136.135 124.125 136.906 124.125C137.677 124.125 138.396 124.271 139.062 124.562C139.75 124.854 140.344 125.25 140.844 125.75C141.365 126.25 141.771 126.844 142.062 127.531C142.354 128.198 142.5 128.917 142.5 129.688ZM183.375 161.094C183.375 162.281 183.167 163.375 182.75 164.375C182.333 165.354 181.771 166.25 181.062 167.062C180.354 167.854 179.531 168.552 178.594 169.156C177.677 169.74 176.698 170.229 175.656 170.625C174.635 171.042 173.594 171.344 172.531 171.531C171.469 171.74 170.448 171.844 169.469 171.844C166.823 171.844 164.333 171.448 162 170.656C159.667 169.885 157.552 168.688 155.656 167.062C155.656 167.417 155.656 167.771 155.656 168.125C155.656 168.458 155.677 168.781 155.719 169.094V169.219C155.719 169.635 155.573 170.01 155.281 170.344C155.01 170.677 154.667 170.844 154.25 170.844C153.771 170.844 153.354 170.698 153 170.406C152.667 170.135 152.479 169.792 152.438 169.375C152.396 168.958 152.375 168.542 152.375 168.125C152.375 167.688 152.375 167.25 152.375 166.812C152.375 166.042 152.385 165.281 152.406 164.531C152.448 163.781 152.49 163.115 152.531 162.531C152.573 161.927 152.604 161.438 152.625 161.062C152.667 160.667 152.698 160.448 152.719 160.406C152.76 159.99 152.927 159.646 153.219 159.375C153.531 159.083 153.896 158.938 154.312 158.938C154.833 158.938 155.24 159.104 155.531 159.438C155.823 159.771 155.969 160.135 155.969 160.531V160.719C155.948 160.885 155.927 161.073 155.906 161.281C155.885 161.448 155.865 161.656 155.844 161.906C155.823 162.156 155.802 162.427 155.781 162.719C157.677 164.74 159.76 166.219 162.031 167.156C164.323 168.073 166.802 168.531 169.469 168.531C169.781 168.531 170.188 168.51 170.688 168.469C171.188 168.427 171.708 168.365 172.25 168.281C172.812 168.177 173.375 168.052 173.938 167.906C174.5 167.74 175 167.542 175.438 167.312C175.896 167.062 176.26 166.771 176.531 166.438C176.823 166.104 176.969 165.708 176.969 165.25C176.969 164.792 176.76 164.385 176.344 164.031C175.948 163.656 175.438 163.323 174.812 163.031C174.188 162.74 173.49 162.49 172.719 162.281C171.969 162.073 171.229 161.896 170.5 161.75C169.792 161.604 169.146 161.49 168.562 161.406C168 161.323 167.583 161.26 167.312 161.219C165.521 161.031 163.75 160.688 162 160.188C160.271 159.667 158.708 158.958 157.312 158.062C155.917 157.167 154.792 156.062 153.938 154.75C153.083 153.438 152.656 151.885 152.656 150.094C152.656 148.26 153.031 146.615 153.781 145.156C154.531 143.677 155.51 142.427 156.719 141.406C157.948 140.385 159.344 139.604 160.906 139.062C162.49 138.521 164.104 138.25 165.75 138.25C167.917 138.25 169.969 138.521 171.906 139.062C173.865 139.583 175.656 140.406 177.281 141.531C177.469 141.073 177.688 140.615 177.938 140.156C178.188 139.677 178.438 139.219 178.688 138.781C178.854 138.51 179.062 138.312 179.312 138.188C179.583 138.062 179.844 138 180.094 138C180.573 138 180.969 138.167 181.281 138.5C181.594 138.812 181.75 139.177 181.75 139.594C181.75 139.927 181.667 140.208 181.5 140.438C180.708 141.854 180.042 143.292 179.5 144.75C178.979 146.188 178.625 147.646 178.438 149.125C178.375 149.521 178.188 149.854 177.875 150.125C177.562 150.396 177.198 150.531 176.781 150.531C176.323 150.531 175.938 150.365 175.625 150.031C175.312 149.677 175.156 149.292 175.156 148.875V148.625C175.385 147.333 175.688 146.031 176.062 144.719C174.562 143.531 172.927 142.708 171.156 142.25C169.385 141.771 167.583 141.531 165.75 141.531C165.125 141.531 164.469 141.604 163.781 141.75C163.094 141.875 162.448 142.094 161.844 142.406C161.26 142.698 160.771 143.094 160.375 143.594C160 144.094 159.812 144.708 159.812 145.438C159.812 146.083 160.021 146.656 160.438 147.156C160.854 147.635 161.385 148.062 162.031 148.438C162.677 148.812 163.396 149.135 164.188 149.406C165 149.677 165.792 149.906 166.562 150.094C167.354 150.281 168.083 150.438 168.75 150.562C169.438 150.688 169.979 150.792 170.375 150.875C171.833 151.167 173.323 151.552 174.844 152.031C176.385 152.49 177.781 153.115 179.031 153.906C180.302 154.677 181.344 155.646 182.156 156.812C182.969 157.979 183.375 159.406 183.375 161.094ZM36.0488 222.947C36.0488 220.256 35.5918 217.869 34.6777 215.787C33.7637 213.688 32.5026 211.945 30.8945 210.557C29.3034 209.152 27.4076 208.119 25.207 207.459C23.0234 206.782 20.6621 206.52 18.123 206.672V239.4C19.748 239.451 21.3223 239.307 22.8457 238.969C24.3691 238.63 25.791 238.122 27.1113 237.445C28.4486 236.751 29.6589 235.913 30.7422 234.932C31.8424 233.95 32.7819 232.841 33.5605 231.605C34.3561 230.37 34.9655 229.024 35.3887 227.568C35.8288 226.113 36.0488 224.572 36.0488 222.947ZM38.7148 222.947C38.7148 225.046 38.4355 226.976 37.877 228.736C37.3353 230.497 36.5736 232.088 35.5918 233.51C34.61 234.932 33.4336 236.176 32.0625 237.242C30.6914 238.309 29.1764 239.206 27.5176 239.934C25.8757 240.645 24.1237 241.178 22.2617 241.533C20.3997 241.906 18.4785 242.092 16.498 242.092C14.8392 242.092 13.3327 242.007 11.9785 241.838C10.6413 241.669 9.48177 241.482 8.5 241.279C7.53516 241.076 6.77344 240.89 6.21484 240.721C5.67318 240.535 5.37695 240.433 5.32617 240.416C5.07227 240.314 4.86068 240.154 4.69141 239.934C4.52214 239.697 4.4375 239.443 4.4375 239.172C4.4375 238.783 4.58138 238.461 4.86914 238.207C5.1569 237.953 5.47005 237.826 5.80859 237.826C5.89323 237.826 5.9694 237.835 6.03711 237.852C6.10482 237.868 6.18099 237.894 6.26562 237.928C6.48568 238.012 6.74805 238.097 7.05273 238.182C7.54362 238.334 8.27148 238.512 9.23633 238.715V207.611C8.11914 207.848 7.26432 208.051 6.67188 208.221C6.31641 208.322 6.00326 208.415 5.73242 208.5C5.64779 208.534 5.57161 208.559 5.50391 208.576C5.4362 208.593 5.36003 208.602 5.27539 208.602C4.88607 208.602 4.57292 208.466 4.33594 208.195C4.09896 207.908 3.98047 207.594 3.98047 207.256C3.98047 206.968 4.05664 206.714 4.20898 206.494C4.36133 206.257 4.58138 206.096 4.86914 206.012C4.93685 205.995 5.30924 205.885 5.98633 205.682C6.68034 205.462 7.60286 205.233 8.75391 204.996C9.92188 204.742 11.2845 204.522 12.8418 204.336C14.3991 204.133 16.0749 204.031 17.8691 204.031C20.8483 204.031 23.6074 204.429 26.1465 205.225C28.6855 206.003 30.8861 207.18 32.748 208.754C34.61 210.328 36.0658 212.3 37.1152 214.67C38.1816 217.04 38.7148 219.799 38.7148 222.947ZM65.9082 227.594V227.162C65.9082 225.893 65.7728 224.716 65.502 223.633C65.2311 222.549 64.7995 221.593 64.207 220.764C63.6315 219.917 62.8867 219.223 61.9727 218.682C61.0586 218.14 59.9583 217.776 58.6719 217.59C57.7747 217.691 56.9961 217.937 56.3359 218.326C55.6758 218.715 55.1087 219.198 54.6348 219.773C54.1777 220.332 53.7969 220.967 53.4922 221.678C53.1875 222.389 52.9421 223.125 52.7559 223.887C52.5866 224.632 52.4596 225.385 52.375 226.146C52.2904 226.891 52.2396 227.594 52.2227 228.254C52.4935 228.339 52.832 228.432 53.2383 228.533C53.6615 228.635 54.1354 228.736 54.6602 228.838C55.1849 228.923 55.752 228.999 56.3613 229.066C56.9876 229.117 57.6393 229.143 58.3164 229.143C59.7552 229.143 61.1009 229.007 62.3535 228.736C63.623 228.465 64.8079 228.085 65.9082 227.594ZM68.498 228.584C68.4473 229.024 68.2103 229.405 67.7871 229.727C67.3639 230.048 66.8307 230.336 66.1875 230.59C65.5443 230.827 64.8333 231.03 64.0547 231.199C63.293 231.352 62.5397 231.479 61.7949 231.58C61.0501 231.682 60.3646 231.758 59.7383 231.809C59.112 231.842 58.6211 231.859 58.2656 231.859C57.0299 231.859 55.8874 231.775 54.8379 231.605C53.8053 231.436 52.9505 231.258 52.2734 231.072C52.375 232.122 52.5697 233.154 52.8574 234.17C53.1452 235.186 53.5599 236.1 54.1016 236.912C54.6432 237.708 55.3203 238.359 56.1328 238.867C56.9453 239.358 57.9271 239.604 59.0781 239.604C59.5013 239.604 59.9837 239.553 60.5254 239.451C61.0671 239.333 61.6003 239.172 62.125 238.969C62.6497 238.749 63.1322 238.495 63.5723 238.207C64.0124 237.902 64.3594 237.564 64.6133 237.191C64.901 236.853 65.248 236.684 65.6543 236.684C66.0098 236.684 66.3229 236.827 66.5938 237.115C66.8646 237.386 67 237.691 67 238.029C67 238.385 66.89 238.664 66.6699 238.867C66.2637 239.493 65.6966 240.027 64.9688 240.467C64.2409 240.907 63.4538 241.262 62.6074 241.533C61.7611 241.821 60.9062 242.024 60.043 242.143C59.1797 242.278 58.3926 242.346 57.6816 242.346C55.6504 242.346 53.763 241.982 52.0195 241.254C50.276 240.543 48.7611 239.561 47.4746 238.309C46.1882 237.056 45.1725 235.583 44.4277 233.891C43.6999 232.198 43.3359 230.37 43.3359 228.406C43.3359 226.257 43.6576 224.344 44.3008 222.668C44.944 220.975 45.8581 219.553 47.043 218.402C48.2279 217.234 49.6667 216.354 51.3594 215.762C53.0521 215.152 54.9564 214.848 57.0723 214.848C59.0697 214.932 60.7878 215.271 62.2266 215.863C63.6823 216.456 64.8757 217.277 65.8066 218.326C66.7376 219.376 67.4232 220.645 67.8633 222.135C68.3203 223.607 68.5488 225.266 68.5488 227.111C68.5488 227.535 68.5404 227.873 68.5234 228.127C68.5065 228.364 68.498 228.516 68.498 228.584ZM98.1797 233.764C98.1797 234.729 98.0104 235.617 97.6719 236.43C97.3333 237.225 96.8763 237.953 96.3008 238.613C95.7253 239.257 95.0566 239.824 94.2949 240.314C93.5501 240.788 92.7546 241.186 91.9082 241.508C91.0788 241.846 90.2324 242.092 89.3691 242.244C88.5059 242.413 87.6764 242.498 86.8809 242.498C84.7311 242.498 82.7083 242.176 80.8125 241.533C78.9167 240.907 77.1986 239.934 75.6582 238.613C75.6582 238.901 75.6582 239.189 75.6582 239.477C75.6582 239.747 75.6751 240.01 75.709 240.264V240.365C75.709 240.704 75.5905 241.008 75.3535 241.279C75.1335 241.55 74.8542 241.686 74.5156 241.686C74.1263 241.686 73.7878 241.567 73.5 241.33C73.2292 241.11 73.0768 240.831 73.043 240.492C73.0091 240.154 72.9922 239.815 72.9922 239.477C72.9922 239.121 72.9922 238.766 72.9922 238.41C72.9922 237.784 73.0007 237.166 73.0176 236.557C73.0514 235.947 73.0853 235.406 73.1191 234.932C73.153 234.441 73.1784 234.043 73.1953 233.738C73.2292 233.417 73.2546 233.239 73.2715 233.205C73.3053 232.867 73.4408 232.587 73.6777 232.367C73.9316 232.13 74.2279 232.012 74.5664 232.012C74.9896 232.012 75.3197 232.147 75.5566 232.418C75.7936 232.689 75.9121 232.985 75.9121 233.307V233.459C75.8952 233.594 75.8783 233.747 75.8613 233.916C75.8444 234.051 75.8275 234.221 75.8105 234.424C75.7936 234.627 75.7767 234.847 75.7598 235.084C77.3001 236.726 78.9928 237.928 80.8379 238.689C82.6999 239.434 84.7142 239.807 86.8809 239.807C87.1348 239.807 87.4648 239.79 87.8711 239.756C88.2773 239.722 88.7005 239.671 89.1406 239.604C89.5977 239.519 90.0547 239.417 90.5117 239.299C90.9688 239.163 91.375 239.003 91.7305 238.816C92.1029 238.613 92.3991 238.376 92.6191 238.105C92.8561 237.835 92.9746 237.513 92.9746 237.141C92.9746 236.768 92.8053 236.438 92.4668 236.15C92.1452 235.846 91.7305 235.575 91.2227 235.338C90.7148 235.101 90.1478 234.898 89.5215 234.729C88.9121 234.559 88.3112 234.415 87.7188 234.297C87.1432 234.178 86.6185 234.085 86.1445 234.018C85.6875 233.95 85.349 233.899 85.1289 233.865C83.6732 233.713 82.2344 233.434 80.8125 233.027C79.4076 232.604 78.138 232.029 77.0039 231.301C75.8698 230.573 74.9557 229.676 74.2617 228.609C73.5677 227.543 73.2207 226.282 73.2207 224.826C73.2207 223.337 73.5254 221.999 74.1348 220.814C74.7441 219.613 75.5397 218.597 76.5215 217.768C77.5202 216.938 78.6543 216.303 79.9238 215.863C81.2103 215.423 82.5221 215.203 83.8594 215.203C85.6198 215.203 87.2871 215.423 88.8613 215.863C90.4525 216.286 91.9082 216.955 93.2285 217.869C93.3809 217.497 93.5586 217.124 93.7617 216.752C93.9648 216.363 94.168 215.99 94.3711 215.635C94.5065 215.415 94.6758 215.254 94.8789 215.152C95.099 215.051 95.3105 215 95.5137 215C95.903 215 96.2246 215.135 96.4785 215.406C96.7324 215.66 96.8594 215.956 96.8594 216.295C96.8594 216.566 96.7917 216.794 96.6562 216.98C96.013 218.132 95.4714 219.299 95.0312 220.484C94.6081 221.652 94.3203 222.837 94.168 224.039C94.1172 224.361 93.9648 224.632 93.7109 224.852C93.457 225.072 93.1608 225.182 92.8223 225.182C92.4499 225.182 92.1367 225.046 91.8828 224.775C91.6289 224.488 91.502 224.174 91.502 223.836V223.633C91.6882 222.583 91.9336 221.525 92.2383 220.459C91.0195 219.494 89.6908 218.826 88.252 218.453C86.8132 218.064 85.349 217.869 83.8594 217.869C83.3516 217.869 82.8184 217.928 82.2598 218.047C81.7012 218.148 81.1764 218.326 80.6855 218.58C80.2116 218.817 79.8138 219.139 79.4922 219.545C79.1875 219.951 79.0352 220.451 79.0352 221.043C79.0352 221.568 79.2044 222.033 79.543 222.439C79.8815 222.829 80.3132 223.176 80.8379 223.48C81.3626 223.785 81.9466 224.048 82.5898 224.268C83.25 224.488 83.8932 224.674 84.5195 224.826C85.1628 224.979 85.7552 225.105 86.2969 225.207C86.8555 225.309 87.2956 225.393 87.6172 225.461C88.8021 225.698 90.0124 226.011 91.248 226.4C92.5007 226.773 93.6348 227.281 94.6504 227.924C95.6829 228.55 96.5293 229.337 97.1895 230.285C97.8496 231.233 98.1797 232.393 98.1797 233.764ZM118.568 241.635C118.535 241.635 118.492 241.626 118.441 241.609C118.408 241.592 118.365 241.584 118.314 241.584C116.943 241.313 115.64 241.118 114.404 241C113.169 240.865 111.941 240.797 110.723 240.797C109.487 240.797 108.26 240.865 107.041 241C105.822 241.118 104.536 241.313 103.182 241.584C103.131 241.584 103.089 241.592 103.055 241.609C103.021 241.626 102.979 241.635 102.928 241.635C102.538 241.635 102.217 241.491 101.963 241.203C101.726 240.915 101.607 240.602 101.607 240.264C101.607 239.959 101.701 239.68 101.887 239.426C102.09 239.172 102.344 239.02 102.648 238.969C103.241 238.833 103.833 238.732 104.426 238.664C105.035 238.579 105.628 238.495 106.203 238.41V218.961C105.137 218.91 104.24 218.842 103.512 218.758C102.784 218.673 102.378 218.631 102.293 218.631C101.954 218.58 101.675 218.428 101.455 218.174C101.252 217.92 101.15 217.624 101.15 217.285C101.15 216.862 101.303 216.54 101.607 216.32C101.912 216.1 102.208 215.99 102.496 215.99H102.648C102.665 215.99 102.86 216.016 103.232 216.066C103.605 216.1 104.087 216.143 104.68 216.193C105.289 216.244 105.975 216.295 106.736 216.346C107.498 216.38 108.285 216.396 109.098 216.396C109.91 216.396 110.706 216.371 111.484 216.32C112.263 216.253 112.974 216.143 113.617 215.99H113.896C114.286 215.99 114.607 216.126 114.861 216.396C115.115 216.65 115.242 216.947 115.242 217.285L115.191 238.41C115.784 238.495 116.376 238.579 116.969 238.664C117.578 238.732 118.196 238.833 118.822 238.969C119.144 239.02 119.406 239.172 119.609 239.426C119.812 239.68 119.914 239.959 119.914 240.264C119.914 240.653 119.77 240.975 119.482 241.229C119.195 241.499 118.89 241.635 118.568 241.635ZM114.887 208.246C114.887 208.872 114.768 209.465 114.531 210.023C114.294 210.565 113.964 211.039 113.541 211.445C113.135 211.852 112.652 212.173 112.094 212.41C111.552 212.647 110.968 212.766 110.342 212.766C109.715 212.766 109.123 212.647 108.564 212.41C108.023 212.173 107.549 211.852 107.143 211.445C106.736 211.039 106.415 210.565 106.178 210.023C105.941 209.465 105.822 208.872 105.822 208.246C105.822 207.62 105.941 207.036 106.178 206.494C106.415 205.936 106.736 205.453 107.143 205.047C107.549 204.641 108.023 204.319 108.564 204.082C109.123 203.845 109.715 203.727 110.342 203.727C110.968 203.727 111.552 203.845 112.094 204.082C112.652 204.319 113.135 204.641 113.541 205.047C113.964 205.453 114.294 205.936 114.531 206.494C114.768 207.036 114.887 207.62 114.887 208.246ZM141.598 226.705C141.598 225.74 141.598 224.835 141.598 223.988C141.598 223.125 141.581 222.312 141.547 221.551C141.462 221.348 141.293 221.018 141.039 220.561C140.802 220.087 140.421 219.613 139.896 219.139C139.389 218.648 138.712 218.216 137.865 217.844C137.019 217.454 135.952 217.234 134.666 217.184C132.956 217.184 131.501 217.514 130.299 218.174C129.097 218.817 128.107 219.697 127.328 220.814C126.549 221.932 125.982 223.235 125.627 224.725C125.271 226.214 125.094 227.788 125.094 229.447C125.111 230.683 125.28 231.876 125.602 233.027C125.94 234.178 126.431 235.202 127.074 236.1C127.734 236.98 128.53 237.691 129.461 238.232C130.409 238.757 131.501 239.02 132.736 239.02C133.633 239.02 134.471 238.816 135.25 238.41C136.046 237.987 136.773 237.437 137.434 236.76C138.094 236.066 138.678 235.287 139.186 234.424C139.71 233.561 140.15 232.672 140.506 231.758C140.861 230.844 141.132 229.947 141.318 229.066C141.505 228.186 141.598 227.399 141.598 226.705ZM153.709 216.396C153.709 216.718 153.599 217.006 153.379 217.26C153.176 217.497 152.922 217.641 152.617 217.691C152.296 217.759 151.957 217.818 151.602 217.869C151.246 217.903 150.874 217.937 150.484 217.971C150.484 218.495 150.493 219.223 150.51 220.154C150.527 221.068 150.535 222.16 150.535 223.43C150.535 224.479 150.527 225.613 150.51 226.832C150.493 228.034 150.467 229.295 150.434 230.615C150.4 231.936 150.349 233.298 150.281 234.703C150.23 236.091 150.154 237.496 150.053 238.918C149.917 240.983 149.486 242.955 148.758 244.834C148.03 246.713 147.048 248.363 145.812 249.785C144.577 251.207 143.104 252.341 141.395 253.188C139.685 254.034 137.789 254.457 135.707 254.457C134.285 254.457 132.956 254.22 131.721 253.746C130.502 253.272 129.444 252.62 128.547 251.791C127.65 250.962 126.947 249.98 126.439 248.846C125.932 247.712 125.678 246.484 125.678 245.164V245.113C125.678 244.741 125.805 244.419 126.059 244.148C126.312 243.895 126.634 243.768 127.023 243.768C127.396 243.768 127.701 243.895 127.938 244.148C128.191 244.419 128.318 244.741 128.318 245.113C128.318 246.163 128.521 247.094 128.928 247.906C129.334 248.736 129.876 249.438 130.553 250.014C131.247 250.606 132.034 251.055 132.914 251.359C133.794 251.664 134.708 251.816 135.656 251.816C136.57 251.816 137.366 251.512 138.043 250.902C138.72 250.293 139.296 249.345 139.77 248.059C140.243 246.789 140.616 245.156 140.887 243.158C141.174 241.178 141.378 238.808 141.496 236.049C141.107 236.844 140.616 237.589 140.023 238.283C139.431 238.96 138.754 239.553 137.992 240.061C137.247 240.568 136.435 240.966 135.555 241.254C134.691 241.542 133.777 241.686 132.812 241.686C131.188 241.686 129.74 241.355 128.471 240.695C127.201 240.035 126.118 239.146 125.221 238.029C124.34 236.912 123.663 235.617 123.189 234.145C122.715 232.672 122.47 231.123 122.453 229.498C122.453 227.467 122.707 225.546 123.215 223.734C123.723 221.906 124.484 220.315 125.5 218.961C126.533 217.607 127.819 216.532 129.359 215.736C130.9 214.941 132.702 214.543 134.768 214.543C136.257 214.594 137.535 214.839 138.602 215.279C139.685 215.719 140.607 216.253 141.369 216.879L141.318 216.6V216.549C141.318 216.193 141.462 215.88 141.75 215.609C142.038 215.339 142.351 215.203 142.689 215.203H142.74C142.757 215.203 142.901 215.212 143.172 215.229C143.443 215.245 143.79 215.262 144.213 215.279C144.653 215.296 145.152 215.313 145.711 215.33C146.286 215.347 146.87 215.355 147.463 215.355C148.326 215.355 149.173 215.339 150.002 215.305C150.848 215.271 151.559 215.203 152.135 215.102C152.169 215.068 152.202 215.051 152.236 215.051C152.287 215.051 152.329 215.051 152.363 215.051C152.719 215.051 153.032 215.195 153.303 215.482C153.574 215.753 153.709 216.058 153.709 216.396ZM188.926 239.857C188.892 240.196 188.74 240.484 188.469 240.721C188.198 240.941 187.893 241.051 187.555 241.051H187.453C186.641 240.966 185.854 240.907 185.092 240.873C184.347 240.822 183.611 240.797 182.883 240.797C181.816 240.797 180.792 240.848 179.811 240.949C178.846 241.034 177.898 241.152 176.967 241.305C176.933 241.305 176.891 241.313 176.84 241.33C176.806 241.347 176.772 241.355 176.738 241.355C176.383 241.355 176.07 241.22 175.799 240.949C175.528 240.661 175.393 240.348 175.393 240.01C175.393 239.705 175.494 239.426 175.697 239.172C175.917 238.918 176.18 238.766 176.484 238.715C177.195 238.579 177.906 238.478 178.617 238.41C179.345 238.326 180.09 238.249 180.852 238.182C181.004 237.657 181.165 236.946 181.334 236.049C181.503 235.152 181.656 234.187 181.791 233.154C181.943 232.122 182.062 231.081 182.146 230.031C182.248 228.982 182.299 228.042 182.299 227.213C182.299 226.35 182.248 225.41 182.146 224.395C182.062 223.379 181.85 222.431 181.512 221.551C181.19 220.654 180.716 219.909 180.09 219.316C179.48 218.724 178.66 218.428 177.627 218.428C176.459 218.428 175.376 218.715 174.377 219.291C173.378 219.867 172.515 220.603 171.787 221.5C171.076 222.38 170.509 223.354 170.086 224.42C169.68 225.486 169.477 226.51 169.477 227.492V227.543L169.426 238.715C169.73 238.749 170.027 238.783 170.314 238.816C170.602 238.833 170.89 238.867 171.178 238.918C171.516 238.952 171.796 239.096 172.016 239.35C172.253 239.587 172.371 239.874 172.371 240.213C172.371 240.585 172.227 240.907 171.939 241.178C171.669 241.449 171.364 241.584 171.025 241.584C170.958 241.584 170.907 241.559 170.873 241.508C169.857 241.406 168.816 241.305 167.75 241.203C166.701 241.102 165.592 241.051 164.424 241.051C163.374 241.051 162.266 241.102 161.098 241.203C159.947 241.322 158.711 241.499 157.391 241.736C157.323 241.77 157.238 241.787 157.137 241.787C156.747 241.787 156.434 241.643 156.197 241.355C155.96 241.068 155.842 240.755 155.842 240.416C155.842 240.111 155.935 239.832 156.121 239.578C156.307 239.324 156.561 239.172 156.883 239.121C157.509 238.986 158.11 238.884 158.686 238.816C159.261 238.732 159.837 238.664 160.412 238.613V219.215C159.346 219.164 158.449 219.105 157.721 219.037C157.01 218.952 156.612 218.893 156.527 218.859C156.189 218.826 155.91 218.682 155.689 218.428C155.486 218.174 155.385 217.878 155.385 217.539C155.385 217.133 155.529 216.811 155.816 216.574C156.104 216.32 156.409 216.193 156.73 216.193C156.798 216.193 156.849 216.21 156.883 216.244C156.9 216.244 157.094 216.261 157.467 216.295C157.839 216.329 158.322 216.371 158.914 216.422C159.523 216.473 160.209 216.515 160.971 216.549C161.732 216.583 162.52 216.6 163.332 216.6C164.145 216.6 164.94 216.583 165.719 216.549C166.497 216.498 167.208 216.396 167.852 216.244C167.885 216.244 167.919 216.236 167.953 216.219C168.004 216.202 168.055 216.193 168.105 216.193C168.495 216.193 168.816 216.337 169.07 216.625C169.341 216.896 169.477 217.201 169.477 217.539V220.154C170.458 218.715 171.626 217.632 172.98 216.904C174.352 216.16 175.9 215.787 177.627 215.787C178.643 215.787 179.523 215.965 180.268 216.32C181.029 216.659 181.681 217.124 182.223 217.717C182.781 218.309 183.23 218.995 183.568 219.773C183.924 220.535 184.203 221.339 184.406 222.186C184.626 223.032 184.77 223.895 184.838 224.775C184.923 225.639 184.965 226.451 184.965 227.213C184.965 228.059 184.923 228.99 184.838 230.006C184.753 231.005 184.643 232.003 184.508 233.002C184.389 234.001 184.245 234.949 184.076 235.846C183.924 236.743 183.771 237.505 183.619 238.131C184.262 238.165 184.923 238.199 185.6 238.232C186.294 238.266 186.996 238.326 187.707 238.41C188.096 238.444 188.393 238.613 188.596 238.918C188.816 239.206 188.926 239.519 188.926 239.857Z" fill="black"/>
<rect opacity="0.75" x="4.5" y="112" width="37" height="14" rx="2" fill="#FFD700"/>
<circle cx="7.5" cy="114.5" r="0.5" fill="white"/>
<circle cx="11.5" cy="114.5" r="0.5" fill="white"/>
<circle cx="15.5" cy="114.5" r="0.5" fill="white"/>
<circle cx="19.5" cy="114.5" r="0.5" fill="white"/>
<circle cx="27.5" cy="114.5" r="0.5" fill="white"/>
<circle cx="31.5" cy="114.5" r="0.5" fill="white"/>
<circle cx="35.5" cy="114.5" r="0.5" fill="white"/>
<circle cx="39.5" cy="114.5" r="0.5" fill="white"/>
<circle cx="23.5" cy="114.5" r="0.5" fill="white"/>
<circle cx="9.5" cy="123.5" r="0.5" fill="white"/>
<circle cx="13.5" cy="123.5" r="0.5" fill="white"/>
<circle cx="17.5" cy="123.5" r="0.5" fill="white"/>
<circle cx="21.5" cy="123.5" r="0.5" fill="white"/>
<circle cx="29.5" cy="123.5" r="0.5" fill="white"/>
<circle cx="33.5" cy="123.5" r="0.5" fill="white"/>
<circle cx="37.5" cy="123.5" r="0.5" fill="white"/>
<circle cx="25.5" cy="123.5" r="0.5" fill="white"/>
<circle cx="9.5" cy="117.5" r="0.5" fill="white"/>
<circle cx="7.5" cy="120.5" r="0.5" fill="white"/>
<circle cx="11.5" cy="120.5" r="0.5" fill="white"/>
<circle cx="15.5" cy="120.5" r="0.5" fill="white"/>
<circle cx="19.5" cy="120.5" r="0.5" fill="white"/>
<circle cx="27.5" cy="120.5" r="0.5" fill="white"/>
<circle cx="31.5" cy="120.5" r="0.5" fill="white"/>
<circle cx="35.5" cy="120.5" r="0.5" fill="white"/>
<circle cx="39.5" cy="120.5" r="0.5" fill="white"/>
<circle cx="23.5" cy="120.5" r="0.5" fill="white"/>
<circle cx="13.5" cy="117.5" r="0.5" fill="white"/>
<circle cx="17.5" cy="117.5" r="0.5" fill="white"/>
<circle cx="21.5" cy="117.5" r="0.5" fill="white"/>
<circle cx="29.5" cy="117.5" r="0.5" fill="white"/>
<circle cx="33.5" cy="117.5" r="0.5" fill="white"/>
<circle cx="37.5" cy="117.5" r="0.5" fill="white"/>
<circle cx="25.5" cy="117.5" r="0.5" fill="white"/>
</svg>
